<svg width="341" height="251" viewBox="0 0 341 251" fill="none" xmlns="http://www.w3.org/2000/svg">
<g filter="url(#filter0_d_27_139)">
<rect x="35" y="35" width="271" height="181" rx="4" fill="white"/>
<g clip-path="url(#clip0_27_139)">
<rect x="150.5" y="89.6667" width="23.3333" height="23.3333" fill="#7595FD"/>
<path d="M161.1 104.3L161.517 108L164.217 105.433L168.833 92.7667C167.7 92.4833 166.7 91.9167 165.883 91.1333L161.1 104.3ZM175.117 91.1333C174.3 91.9167 173.283 92.4833 172.167 92.7667L176.783 105.433L179.483 108L179.917 104.3L175.117 91.1333ZM175.4 87.3333C175.9 84.7333 174.4 82.4333 172.167 81.6333V79.6667C172.167 78.75 171.417 78 170.5 78C169.583 78 168.833 78.75 168.833 79.6667V81.6333C166.9 82.3333 165.5 84.1667 165.5 86.3333C165.5 89.4 168.267 91.8333 171.433 91.25C173.4 90.8833 175.017 89.3 175.4 87.3333ZM170.5 88C169.583 88 168.833 87.25 168.833 86.3333C168.833 85.4167 169.583 84.6667 170.5 84.6667C171.417 84.6667 172.167 85.4167 172.167 86.3333C172.167 87.25 171.417 88 170.5 88Z" fill="#292E3D"/>
</g>
<rect x="140.5" y="133" width="60" height="2" fill="#E0E3EB"/>
<path d="M122.069 173H119.209L118.109 169.78H113.049L111.949 173H109.129L113.949 159.8H117.249L122.069 173ZM113.669 167.74H117.489L115.569 161.98L113.669 167.74ZM123.747 173V163H126.127L126.307 164.96C126.573 164.267 126.96 163.733 127.467 163.36C127.987 162.987 128.633 162.8 129.407 162.8C129.633 162.8 129.84 162.82 130.027 162.86C130.213 162.9 130.367 162.953 130.487 163.02L130.167 165.32C130.033 165.267 129.867 165.227 129.667 165.2C129.48 165.173 129.233 165.16 128.927 165.16C128.527 165.16 128.14 165.26 127.767 165.46C127.393 165.647 127.087 165.94 126.847 166.34C126.607 166.727 126.487 167.22 126.487 167.82V173H123.747ZM136.529 162.8C137.422 162.8 138.175 162.933 138.789 163.2C139.415 163.453 139.915 163.807 140.289 164.26C140.675 164.7 140.949 165.193 141.109 165.74L138.549 166.66C138.415 166.06 138.189 165.607 137.869 165.3C137.549 164.993 137.115 164.84 136.569 164.84C136.062 164.84 135.629 164.96 135.269 165.2C134.909 165.427 134.635 165.78 134.449 166.26C134.262 166.727 134.169 167.313 134.169 168.02C134.169 168.727 134.262 169.313 134.449 169.78C134.649 170.247 134.929 170.593 135.289 170.82C135.662 171.047 136.095 171.16 136.589 171.16C136.989 171.16 137.329 171.093 137.609 170.96C137.889 170.813 138.115 170.607 138.289 170.34C138.475 170.073 138.602 169.753 138.669 169.38L141.149 170.18C141.002 170.78 140.729 171.307 140.329 171.76C139.929 172.213 139.415 172.567 138.789 172.82C138.162 173.073 137.435 173.2 136.609 173.2C135.582 173.2 134.675 172.993 133.889 172.58C133.102 172.167 132.495 171.573 132.069 170.8C131.642 170.027 131.429 169.093 131.429 168C131.429 166.907 131.642 165.973 132.069 165.2C132.495 164.427 133.095 163.833 133.869 163.42C134.642 163.007 135.529 162.8 136.529 162.8ZM143.278 173V158.62H146.018V164.7C146.338 164.06 146.778 163.587 147.338 163.28C147.898 162.96 148.531 162.8 149.238 162.8C149.931 162.8 150.545 162.933 151.078 163.2C151.625 163.467 152.051 163.873 152.358 164.42C152.678 164.953 152.838 165.627 152.838 166.44V173H150.098V167.24C150.098 166.373 149.931 165.78 149.598 165.46C149.265 165.127 148.838 164.96 148.318 164.96C147.931 164.96 147.558 165.053 147.198 165.24C146.851 165.413 146.565 165.707 146.338 166.12C146.125 166.52 146.018 167.053 146.018 167.72V173H143.278ZM157.041 161.56C156.467 161.56 156.041 161.44 155.761 161.2C155.481 160.947 155.341 160.58 155.341 160.1C155.341 159.607 155.481 159.24 155.761 159C156.041 158.747 156.467 158.62 157.041 158.62C157.614 158.62 158.041 158.747 158.321 159C158.601 159.24 158.741 159.607 158.741 160.1C158.741 160.58 158.601 160.947 158.321 161.2C158.041 161.44 157.614 161.56 157.041 161.56ZM158.401 163V173H155.661V163H158.401ZM164.845 159.94V169.74C164.845 170.22 164.965 170.573 165.205 170.8C165.459 171.013 165.799 171.12 166.225 171.12C166.559 171.12 166.852 171.073 167.105 170.98C167.359 170.873 167.585 170.733 167.785 170.56L168.225 172.38C167.905 172.633 167.505 172.833 167.025 172.98C166.545 173.127 166.039 173.2 165.505 173.2C164.839 173.2 164.245 173.1 163.725 172.9C163.219 172.7 162.819 172.38 162.525 171.94C162.245 171.5 162.105 170.913 162.105 170.18V160.7L164.845 159.94ZM168.045 163V165.04H160.265V163H168.045ZM174.539 173.2C173.486 173.2 172.566 172.993 171.779 172.58C171.006 172.167 170.406 171.573 169.979 170.8C169.552 170.027 169.339 169.093 169.339 168C169.339 166.907 169.552 165.973 169.979 165.2C170.406 164.427 170.999 163.833 171.759 163.42C172.532 163.007 173.412 162.8 174.399 162.8C175.412 162.8 176.272 163.007 176.979 163.42C177.686 163.82 178.226 164.373 178.599 165.08C178.972 165.773 179.159 166.567 179.159 167.46C179.159 167.727 179.152 167.98 179.139 168.22C179.126 168.46 179.106 168.673 179.079 168.86H171.099V166.96H177.879L176.559 167.44C176.559 166.6 176.366 165.953 175.979 165.5C175.606 165.047 175.072 164.82 174.379 164.82C173.872 164.82 173.432 164.94 173.059 165.18C172.699 165.42 172.426 165.78 172.239 166.26C172.052 166.727 171.959 167.32 171.959 168.04C171.959 168.747 172.059 169.333 172.259 169.8C172.472 170.253 172.766 170.593 173.139 170.82C173.526 171.047 173.986 171.16 174.519 171.16C175.106 171.16 175.579 171.047 175.939 170.82C176.299 170.593 176.579 170.28 176.779 169.88L178.959 170.72C178.746 171.24 178.419 171.687 177.979 172.06C177.552 172.433 177.039 172.72 176.439 172.92C175.852 173.107 175.219 173.2 174.539 173.2ZM186.021 162.8C186.914 162.8 187.668 162.933 188.281 163.2C188.908 163.453 189.408 163.807 189.781 164.26C190.168 164.7 190.441 165.193 190.601 165.74L188.041 166.66C187.908 166.06 187.681 165.607 187.361 165.3C187.041 164.993 186.608 164.84 186.061 164.84C185.554 164.84 185.121 164.96 184.761 165.2C184.401 165.427 184.128 165.78 183.941 166.26C183.754 166.727 183.661 167.313 183.661 168.02C183.661 168.727 183.754 169.313 183.941 169.78C184.141 170.247 184.421 170.593 184.781 170.82C185.154 171.047 185.588 171.16 186.081 171.16C186.481 171.16 186.821 171.093 187.101 170.96C187.381 170.813 187.608 170.607 187.781 170.34C187.968 170.073 188.094 169.753 188.161 169.38L190.641 170.18C190.494 170.78 190.221 171.307 189.821 171.76C189.421 172.213 188.908 172.567 188.281 172.82C187.654 173.073 186.928 173.2 186.101 173.2C185.074 173.2 184.168 172.993 183.381 172.58C182.594 172.167 181.988 171.573 181.561 170.8C181.134 170.027 180.921 169.093 180.921 168C180.921 166.907 181.134 165.973 181.561 165.2C181.988 164.427 182.588 163.833 183.361 163.42C184.134 163.007 185.021 162.8 186.021 162.8ZM196.31 159.94V169.74C196.31 170.22 196.43 170.573 196.67 170.8C196.923 171.013 197.263 171.12 197.69 171.12C198.023 171.12 198.317 171.073 198.57 170.98C198.823 170.873 199.05 170.733 199.25 170.56L199.69 172.38C199.37 172.633 198.97 172.833 198.49 172.98C198.01 173.127 197.503 173.2 196.97 173.2C196.303 173.2 195.71 173.1 195.19 172.9C194.683 172.7 194.283 172.38 193.99 171.94C193.71 171.5 193.57 170.913 193.57 170.18V160.7L196.31 159.94ZM199.51 163V165.04H191.73V163H199.51ZM204.844 173.2C204.177 173.2 203.577 173.08 203.044 172.84C202.51 172.6 202.084 172.22 201.764 171.7C201.457 171.167 201.304 170.48 201.304 169.64V163H204.044V168.98C204.044 169.753 204.204 170.293 204.524 170.6C204.844 170.893 205.304 171.04 205.904 171.04C206.184 171.04 206.457 170.993 206.724 170.9C206.99 170.793 207.224 170.633 207.424 170.42C207.637 170.207 207.804 169.933 207.924 169.6C208.044 169.253 208.104 168.847 208.104 168.38V163H210.844V173H208.404L208.304 171.26C207.97 171.927 207.51 172.42 206.924 172.74C206.35 173.047 205.657 173.2 204.844 173.2ZM213.727 173V163H216.107L216.287 164.96C216.554 164.267 216.94 163.733 217.447 163.36C217.967 162.987 218.614 162.8 219.387 162.8C219.614 162.8 219.82 162.82 220.007 162.86C220.194 162.9 220.347 162.953 220.467 163.02L220.147 165.32C220.014 165.267 219.847 165.227 219.647 165.2C219.46 165.173 219.214 165.16 218.907 165.16C218.507 165.16 218.12 165.26 217.747 165.46C217.374 165.647 217.067 165.94 216.827 166.34C216.587 166.727 216.467 167.22 216.467 167.82V173H213.727ZM226.609 173.2C225.556 173.2 224.636 172.993 223.849 172.58C223.076 172.167 222.476 171.573 222.049 170.8C221.623 170.027 221.409 169.093 221.409 168C221.409 166.907 221.623 165.973 222.049 165.2C222.476 164.427 223.069 163.833 223.829 163.42C224.603 163.007 225.483 162.8 226.469 162.8C227.483 162.8 228.343 163.007 229.049 163.42C229.756 163.82 230.296 164.373 230.669 165.08C231.043 165.773 231.229 166.567 231.229 167.46C231.229 167.727 231.223 167.98 231.209 168.22C231.196 168.46 231.176 168.673 231.149 168.86H223.169V166.96H229.949L228.629 167.44C228.629 166.6 228.436 165.953 228.049 165.5C227.676 165.047 227.143 164.82 226.449 164.82C225.943 164.82 225.503 164.94 225.129 165.18C224.769 165.42 224.496 165.78 224.309 166.26C224.123 166.727 224.029 167.32 224.029 168.04C224.029 168.747 224.129 169.333 224.329 169.8C224.543 170.253 224.836 170.593 225.209 170.82C225.596 171.047 226.056 171.16 226.589 171.16C227.176 171.16 227.649 171.047 228.009 170.82C228.369 170.593 228.649 170.28 228.849 169.88L231.029 170.72C230.816 171.24 230.489 171.687 230.049 172.06C229.623 172.433 229.109 172.72 228.509 172.92C227.923 173.107 227.289 173.2 226.609 173.2Z" fill="#2947A9"/>
</g>
<defs>
<filter id="filter0_d_27_139" x="0" y="0" width="341" height="251" filterUnits="userSpaceOnUse" color-interpolation-filters="sRGB">
<feFlood flood-opacity="0" result="BackgroundImageFix"/>
<feColorMatrix in="SourceAlpha" type="matrix" values="0 0 0 0 0 0 0 0 0 0 0 0 0 0 0 0 0 0 127 0" result="hardAlpha"/>
<feMorphology radius="2" operator="erode" in="SourceAlpha" result="effect1_dropShadow_27_139"/>
<feOffset/>
<feGaussianBlur stdDeviation="18.5"/>
<feColorMatrix type="matrix" values="0 0 0 0 0.0666667 0 0 0 0 0.0941176 0 0 0 0 0.152941 0 0 0 0.05 0"/>
<feBlend mode="normal" in2="BackgroundImageFix" result="effect1_dropShadow_27_139"/>
<feBlend mode="normal" in="SourceGraphic" in2="effect1_dropShadow_27_139" result="shape"/>
</filter>
<clipPath id="clip0_27_139">
<rect width="40" height="40" fill="white" transform="translate(150.5 73)"/>
</clipPath>
</defs>
</svg>
