<svg width="327" height="179" viewBox="0 0 327 179" fill="none" xmlns="http://www.w3.org/2000/svg">
<g filter="url(#filter0_dd_32_75)">
<rect x="12" width="276" height="155" rx="4" fill="white"/>
<path d="M63.384 78.72C58.632 78.72 54.576 77.736 51.216 75.768C47.904 73.752 45.624 70.872 44.376 67.128L53.736 63.024C54.072 64.752 54.624 66.192 55.392 67.344C56.16 68.448 57.192 69.288 58.488 69.864C59.832 70.44 61.416 70.728 63.24 70.728C64.872 70.728 66.24 70.44 67.344 69.864C68.496 69.288 69.384 68.472 70.008 67.416C70.632 66.36 70.944 65.16 70.944 63.816C70.944 62.376 70.656 61.2 70.08 60.288C69.552 59.376 68.736 58.728 67.632 58.344C66.528 57.912 65.136 57.696 63.456 57.696C62.832 57.696 62.232 57.72 61.656 57.768C61.128 57.768 60.528 57.816 59.856 57.912V50.64C60.24 50.688 60.624 50.736 61.008 50.784C61.44 50.784 61.872 50.784 62.304 50.784C64.992 50.784 66.912 50.256 68.064 49.2C69.264 48.096 69.864 46.344 69.864 43.944C69.864 41.976 69.264 40.464 68.064 39.408C66.912 38.304 65.256 37.752 63.096 37.752C60.792 37.752 58.968 38.328 57.624 39.48C56.28 40.584 55.344 42.288 54.816 44.592L45.96 41.28C46.536 38.88 47.64 36.816 49.272 35.088C50.952 33.36 53.016 32.04 55.464 31.128C57.912 30.168 60.624 29.688 63.6 29.688C67.152 29.688 70.104 30.24 72.456 31.344C74.856 32.448 76.656 33.96 77.856 35.88C79.104 37.8 79.728 40.008 79.728 42.504C79.728 44.472 79.416 46.152 78.792 47.544C78.216 48.888 77.448 50.04 76.488 51C75.576 51.912 74.616 52.608 73.608 53.088C72.6 53.568 71.664 53.856 70.8 53.952V54.168C71.904 54.216 73.032 54.456 74.184 54.888C75.336 55.272 76.392 55.872 77.352 56.688C78.36 57.504 79.176 58.56 79.8 59.856C80.424 61.104 80.736 62.592 80.736 64.32C80.736 67.2 79.968 69.744 78.432 71.952C76.944 74.112 74.904 75.792 72.312 76.992C69.72 78.144 66.744 78.72 63.384 78.72ZM84.5981 30.48H122.254V38.04C118.27 42.024 115.102 46.128 112.75 50.352C110.398 54.576 108.694 58.968 107.638 63.528C106.63 68.088 106.126 72.912 106.126 78H96.2621C96.2621 72.72 96.9101 67.656 98.2061 62.808C99.5501 57.912 101.59 53.256 104.326 48.84C107.11 44.376 110.638 40.104 114.91 36.024L116.926 38.616H84.5981V30.48Z" fill="#292E3D"/>
<rect x="58" y="97" width="7" height="28" fill="#F9995D"/>
<path d="M92.216 119H90.176L88.496 114.608H81.32L79.64 119H77.624L83.792 103.16H86.072L92.216 119ZM82.016 112.808H87.8L84.896 105.008L82.016 112.808ZM109.491 107H111.627L107.451 119H105.531L102.147 109.448L98.9549 119H97.0349L92.8589 107H94.9949L98.0189 116.768L101.283 107H103.203L106.467 116.768L109.491 107ZM121.256 111.248C121.256 110.352 121.016 109.664 120.536 109.184C120.056 108.688 119.376 108.44 118.496 108.44C117.664 108.44 116.96 108.624 116.384 108.992C115.808 109.344 115.384 109.92 115.112 110.72L113.552 109.76C113.872 108.864 114.464 108.144 115.328 107.6C116.192 107.04 117.264 106.76 118.544 106.76C119.408 106.76 120.192 106.912 120.896 107.216C121.6 107.504 122.152 107.952 122.552 108.56C122.968 109.152 123.176 109.92 123.176 110.864V116.672C123.176 117.248 123.48 117.536 124.088 117.536C124.392 117.536 124.688 117.496 124.976 117.416L124.88 118.928C124.56 119.088 124.144 119.168 123.632 119.168C123.168 119.168 122.752 119.08 122.384 118.904C122.016 118.728 121.728 118.464 121.52 118.112C121.312 117.744 121.208 117.288 121.208 116.744V116.504L121.688 116.576C121.496 117.2 121.168 117.712 120.704 118.112C120.24 118.496 119.72 118.784 119.144 118.976C118.568 119.152 118 119.24 117.44 119.24C116.736 119.24 116.08 119.12 115.472 118.88C114.864 118.64 114.376 118.28 114.008 117.8C113.656 117.304 113.48 116.696 113.48 115.976C113.48 115.08 113.776 114.344 114.368 113.768C114.976 113.176 115.816 112.776 116.888 112.568L121.64 111.632V113.216L117.776 114.008C116.992 114.168 116.408 114.392 116.024 114.68C115.64 114.968 115.448 115.368 115.448 115.88C115.448 116.376 115.64 116.784 116.024 117.104C116.424 117.408 116.984 117.56 117.704 117.56C118.168 117.56 118.608 117.504 119.024 117.392C119.456 117.264 119.84 117.08 120.176 116.84C120.512 116.584 120.776 116.272 120.968 115.904C121.16 115.52 121.256 115.072 121.256 114.56V111.248ZM127.841 119V107H129.401L129.665 108.968C130.001 108.232 130.489 107.68 131.129 107.312C131.785 106.944 132.577 106.76 133.505 106.76C133.713 106.76 133.937 106.776 134.177 106.808C134.433 106.84 134.649 106.904 134.825 107L134.489 108.752C134.313 108.688 134.121 108.64 133.913 108.608C133.705 108.576 133.409 108.56 133.025 108.56C132.529 108.56 132.025 108.704 131.513 108.992C131.017 109.28 130.601 109.72 130.265 110.312C129.929 110.888 129.761 111.624 129.761 112.52V119H127.841ZM141.943 119.24C140.951 119.24 140.039 118.992 139.207 118.496C138.375 118 137.711 117.288 137.215 116.36C136.719 115.416 136.471 114.296 136.471 113C136.471 111.672 136.735 110.544 137.263 109.616C137.791 108.688 138.487 107.984 139.351 107.504C140.215 107.008 141.143 106.76 142.135 106.76C143.127 106.76 143.983 107.016 144.703 107.528C145.439 108.04 145.927 108.72 146.167 109.568L145.927 109.736V101.48H147.847V119H146.167L145.999 116.096L146.263 115.952C146.151 116.656 145.879 117.256 145.447 117.752C145.031 118.232 144.511 118.6 143.887 118.856C143.279 119.112 142.631 119.24 141.943 119.24ZM142.135 117.56C142.903 117.56 143.567 117.368 144.127 116.984C144.703 116.6 145.143 116.056 145.447 115.352C145.767 114.632 145.927 113.792 145.927 112.832C145.927 111.92 145.767 111.136 145.447 110.48C145.143 109.824 144.711 109.32 144.151 108.968C143.607 108.616 142.967 108.44 142.231 108.44C141.015 108.44 140.071 108.856 139.399 109.688C138.727 110.52 138.391 111.624 138.391 113C138.391 114.376 138.719 115.48 139.375 116.312C140.031 117.144 140.951 117.56 142.135 117.56ZM156.63 119.24C155.462 119.24 154.382 118.992 153.39 118.496C152.414 118 151.662 117.296 151.134 116.384L152.766 115.208C153.118 115.944 153.63 116.52 154.302 116.936C154.99 117.352 155.814 117.56 156.774 117.56C157.622 117.56 158.286 117.4 158.766 117.08C159.246 116.744 159.486 116.312 159.486 115.784C159.486 115.448 159.374 115.144 159.15 114.872C158.942 114.584 158.534 114.376 157.926 114.248L155.046 113.648C153.878 113.408 153.038 113.008 152.526 112.448C152.03 111.888 151.782 111.192 151.782 110.36C151.782 109.704 151.966 109.104 152.334 108.56C152.718 108.016 153.254 107.584 153.942 107.264C154.646 106.928 155.47 106.76 156.414 106.76C157.598 106.76 158.598 106.992 159.414 107.456C160.23 107.92 160.838 108.576 161.238 109.424L159.63 110.48C159.358 109.776 158.918 109.264 158.31 108.944C157.702 108.608 157.07 108.44 156.414 108.44C155.838 108.44 155.342 108.52 154.926 108.68C154.526 108.84 154.214 109.064 153.99 109.352C153.782 109.624 153.678 109.936 153.678 110.288C153.678 110.64 153.798 110.968 154.038 111.272C154.278 111.56 154.726 111.768 155.382 111.896L158.382 112.52C159.502 112.744 160.286 113.112 160.734 113.624C161.182 114.136 161.406 114.76 161.406 115.496C161.406 116.248 161.206 116.912 160.806 117.488C160.406 118.048 159.846 118.48 159.126 118.784C158.406 119.088 157.574 119.24 156.63 119.24ZM175.872 119L171.192 103.16H173.184L177.096 117.248L180.816 103.16H183L186.72 117.296L190.632 103.16H192.528L187.872 119H185.496L182.688 108.728L181.872 105.152H181.848L181.032 108.728L178.248 119H175.872ZM196.583 104.696C196.151 104.696 195.799 104.568 195.527 104.312C195.271 104.04 195.143 103.688 195.143 103.256C195.143 102.824 195.271 102.48 195.527 102.224C195.799 101.952 196.151 101.816 196.583 101.816C197.015 101.816 197.359 101.952 197.615 102.224C197.887 102.48 198.023 102.824 198.023 103.256C198.023 103.688 197.887 104.04 197.615 104.312C197.359 104.568 197.015 104.696 196.583 104.696ZM197.543 107V119H195.623V107H197.543ZM201.998 119V107H203.678L203.846 109.688L203.534 109.424C203.79 108.784 204.134 108.272 204.566 107.888C204.998 107.488 205.494 107.2 206.054 107.024C206.63 106.848 207.222 106.76 207.83 106.76C208.694 106.76 209.478 106.928 210.182 107.264C210.886 107.584 211.446 108.08 211.862 108.752C212.294 109.424 212.51 110.28 212.51 111.32V119H210.59V111.992C210.59 110.664 210.302 109.744 209.726 109.232C209.166 108.704 208.47 108.44 207.638 108.44C207.062 108.44 206.486 108.576 205.91 108.848C205.334 109.12 204.854 109.56 204.47 110.168C204.102 110.776 203.918 111.592 203.918 112.616V119H201.998Z" fill="#667299"/>
<rect x="12.5" y="0.5" width="275" height="154" rx="3.5" stroke="white"/>
</g>
<defs>
<filter id="filter0_dd_32_75" x="0" y="0" width="327" height="179" filterUnits="userSpaceOnUse" color-interpolation-filters="sRGB">
<feFlood flood-opacity="0" result="BackgroundImageFix"/>
<feColorMatrix in="SourceAlpha" type="matrix" values="0 0 0 0 0 0 0 0 0 0 0 0 0 0 0 0 0 0 127 0" result="hardAlpha"/>
<feMorphology radius="2" operator="erode" in="SourceAlpha" result="effect1_dropShadow_32_75"/>
<feOffset dy="4"/>
<feGaussianBlur stdDeviation="3"/>
<feColorMatrix type="matrix" values="0 0 0 0 0.0666667 0 0 0 0 0.0941176 0 0 0 0 0.152941 0 0 0 0.05 0"/>
<feBlend mode="normal" in2="BackgroundImageFix" result="effect1_dropShadow_32_75"/>
<feColorMatrix in="SourceAlpha" type="matrix" values="0 0 0 0 0 0 0 0 0 0 0 0 0 0 0 0 0 0 127 0" result="hardAlpha"/>
<feMorphology radius="4" operator="erode" in="SourceAlpha" result="effect2_dropShadow_32_75"/>
<feOffset dy="12"/>
<feGaussianBlur stdDeviation="8"/>
<feColorMatrix type="matrix" values="0 0 0 0 0.0666667 0 0 0 0 0.0941176 0 0 0 0 0.152941 0 0 0 0.1 0"/>
<feBlend mode="normal" in2="effect1_dropShadow_32_75" result="effect2_dropShadow_32_75"/>
<feBlend mode="normal" in="SourceGraphic" in2="effect2_dropShadow_32_75" result="shape"/>
</filter>
</defs>
</svg>
