<svg width="340" height="251" viewBox="0 0 340 251" fill="none" xmlns="http://www.w3.org/2000/svg">
<g filter="url(#filter0_d_27_108)">
<rect x="35" y="35" width="270" height="181" rx="4" fill="white"/>
<rect x="150" y="89.6666" width="23.3333" height="23.3333" fill="#7595FD"/>
<path d="M168.333 83H173.333L178.817 77.5C178.972 77.3437 179.156 77.2198 179.359 77.1351C179.562 77.0505 179.78 77.007 180 77.007C180.22 77.007 180.438 77.0505 180.641 77.1351C180.844 77.2198 181.028 77.3437 181.183 77.5L185.483 81.8166C185.794 82.1289 185.968 82.5513 185.968 82.9916C185.968 83.4319 185.794 83.8544 185.483 84.1666L181.667 88H168.333V91.3333C168.333 91.7753 168.158 92.1992 167.845 92.5118C167.533 92.8244 167.109 93 166.667 93C166.225 93 165.801 92.8244 165.488 92.5118C165.176 92.1992 165 91.7753 165 91.3333V86.3333C165 85.4492 165.351 84.6014 165.976 83.9763C166.601 83.3511 167.449 83 168.333 83ZM158.333 91.3333V98L154.517 101.817C154.206 102.129 154.032 102.551 154.032 102.992C154.032 103.432 154.206 103.854 154.517 104.167L158.817 108.483C158.972 108.64 159.156 108.763 159.359 108.848C159.562 108.933 159.78 108.976 160 108.976C160.22 108.976 160.438 108.933 160.641 108.848C160.844 108.763 161.028 108.64 161.183 108.483L168.333 101.333H175C175.442 101.333 175.866 101.158 176.179 100.845C176.491 100.533 176.667 100.109 176.667 99.6666V98H178.333C178.775 98 179.199 97.8244 179.512 97.5118C179.824 97.1992 180 96.7753 180 96.3333V94.6666H181.667C182.109 94.6666 182.533 94.491 182.845 94.1785C183.158 93.8659 183.333 93.442 183.333 93V91.3333H171.667V93C171.667 93.884 171.315 94.7319 170.69 95.357C170.065 95.9821 169.217 96.3333 168.333 96.3333H165C164.116 96.3333 163.268 95.9821 162.643 95.357C162.018 94.7319 161.667 93.884 161.667 93V88L158.333 91.3333Z" fill="#292E3D"/>
<rect x="140" y="133" width="60" height="2" fill="#E0E3EB"/>
<path d="M120.315 169.36C120.062 170.213 119.662 170.927 119.115 171.5C118.568 172.073 117.922 172.5 117.175 172.78C116.428 173.06 115.608 173.2 114.715 173.2C113.408 173.2 112.275 172.927 111.315 172.38C110.368 171.833 109.635 171.053 109.115 170.04C108.608 169.027 108.355 167.813 108.355 166.4C108.355 164.987 108.608 163.773 109.115 162.76C109.635 161.747 110.368 160.967 111.315 160.42C112.275 159.873 113.395 159.6 114.675 159.6C115.582 159.6 116.402 159.727 117.135 159.98C117.868 160.22 118.488 160.593 118.995 161.1C119.515 161.607 119.895 162.247 120.135 163.02L117.635 164.08C117.408 163.28 117.062 162.713 116.595 162.38C116.128 162.033 115.528 161.86 114.795 161.86C114.075 161.86 113.442 162.033 112.895 162.38C112.362 162.727 111.948 163.24 111.655 163.92C111.362 164.587 111.215 165.413 111.215 166.4C111.215 167.373 111.348 168.2 111.615 168.88C111.895 169.56 112.302 170.073 112.835 170.42C113.368 170.767 114.022 170.94 114.795 170.94C115.515 170.94 116.135 170.747 116.655 170.36C117.188 169.973 117.562 169.387 117.775 168.6L120.315 169.36ZM126.947 162.8C127.961 162.8 128.847 163.007 129.607 163.42C130.381 163.833 130.981 164.427 131.407 165.2C131.847 165.973 132.067 166.907 132.067 168C132.067 169.08 131.847 170.013 131.407 170.8C130.981 171.573 130.381 172.167 129.607 172.58C128.847 172.993 127.961 173.2 126.947 173.2C125.947 173.2 125.061 172.993 124.287 172.58C123.514 172.167 122.907 171.573 122.467 170.8C122.041 170.013 121.827 169.08 121.827 168C121.827 166.907 122.041 165.973 122.467 165.2C122.907 164.427 123.514 163.833 124.287 163.42C125.061 163.007 125.947 162.8 126.947 162.8ZM126.947 164.84C126.441 164.84 126.007 164.96 125.647 165.2C125.301 165.427 125.034 165.773 124.847 166.24C124.661 166.707 124.567 167.293 124.567 168C124.567 168.707 124.661 169.293 124.847 169.76C125.034 170.227 125.301 170.58 125.647 170.82C126.007 171.047 126.441 171.16 126.947 171.16C127.441 171.16 127.861 171.047 128.207 170.82C128.567 170.58 128.841 170.227 129.027 169.76C129.214 169.293 129.307 168.707 129.307 168C129.307 167.293 129.214 166.707 129.027 166.24C128.841 165.773 128.567 165.427 128.207 165.2C127.861 164.96 127.441 164.84 126.947 164.84ZM134.36 173V163H136.82L136.98 166L136.64 165.68C136.8 165.027 137.053 164.487 137.4 164.06C137.747 163.633 138.167 163.32 138.66 163.12C139.167 162.907 139.72 162.8 140.32 162.8C141.013 162.8 141.627 162.933 142.16 163.2C142.707 163.467 143.133 163.873 143.44 164.42C143.76 164.953 143.92 165.627 143.92 166.44V173H141.18V167.22C141.18 166.367 141.013 165.78 140.68 165.46C140.347 165.127 139.913 164.96 139.38 164.96C139.007 164.96 138.64 165.053 138.28 165.24C137.933 165.413 137.647 165.7 137.42 166.1C137.207 166.5 137.1 167.033 137.1 167.7V173H134.36ZM150.743 173.2C149.729 173.2 148.803 173.02 147.963 172.66C147.136 172.3 146.463 171.793 145.943 171.14L147.523 169.54C147.843 170.02 148.269 170.413 148.803 170.72C149.336 171.027 149.969 171.18 150.703 171.18C151.223 171.18 151.636 171.107 151.943 170.96C152.263 170.8 152.423 170.553 152.423 170.22C152.423 170.007 152.349 169.827 152.203 169.68C152.056 169.52 151.763 169.393 151.323 169.3L149.563 168.94C148.403 168.7 147.576 168.34 147.083 167.86C146.603 167.367 146.363 166.733 146.363 165.96C146.363 165.413 146.523 164.9 146.843 164.42C147.176 163.94 147.669 163.553 148.323 163.26C148.976 162.953 149.789 162.8 150.763 162.8C151.763 162.8 152.629 162.96 153.363 163.28C154.109 163.587 154.696 164.047 155.123 164.66L153.483 166.26C153.189 165.793 152.803 165.44 152.323 165.2C151.856 164.947 151.363 164.82 150.843 164.82C150.469 164.82 150.149 164.86 149.883 164.94C149.616 165.02 149.416 165.133 149.283 165.28C149.149 165.413 149.083 165.587 149.083 165.8C149.083 166.013 149.176 166.2 149.363 166.36C149.549 166.507 149.889 166.633 150.383 166.74L152.423 167.16C153.409 167.36 154.116 167.7 154.543 168.18C154.969 168.647 155.183 169.213 155.183 169.88C155.183 170.52 155.009 171.093 154.663 171.6C154.329 172.093 153.829 172.487 153.163 172.78C152.509 173.06 151.703 173.2 150.743 173.2ZM160.848 173.2C160.181 173.2 159.581 173.08 159.048 172.84C158.514 172.6 158.088 172.22 157.768 171.7C157.461 171.167 157.308 170.48 157.308 169.64V163H160.048V168.98C160.048 169.753 160.208 170.293 160.528 170.6C160.848 170.893 161.308 171.04 161.908 171.04C162.188 171.04 162.461 170.993 162.728 170.9C162.994 170.793 163.228 170.633 163.428 170.42C163.641 170.207 163.808 169.933 163.928 169.6C164.048 169.253 164.108 168.847 164.108 168.38V163H166.848V173H164.408L164.308 171.26C163.974 171.927 163.514 172.42 162.928 172.74C162.354 173.047 161.661 173.2 160.848 173.2ZM172.431 158.62V169.92C172.431 170.387 172.511 170.713 172.671 170.9C172.831 171.087 173.098 171.18 173.471 171.18C173.698 171.18 173.884 171.167 174.031 171.14C174.178 171.1 174.364 171.047 174.591 170.98L174.351 172.78C174.124 172.913 173.838 173.013 173.491 173.08C173.158 173.16 172.824 173.2 172.491 173.2C171.518 173.2 170.804 172.967 170.351 172.5C169.911 172.02 169.691 171.26 169.691 170.22V158.62H172.431ZM179.306 159.94V169.74C179.306 170.22 179.426 170.573 179.666 170.8C179.92 171.013 180.26 171.12 180.686 171.12C181.02 171.12 181.313 171.073 181.566 170.98C181.82 170.873 182.046 170.733 182.246 170.56L182.686 172.38C182.366 172.633 181.966 172.833 181.486 172.98C181.006 173.127 180.5 173.2 179.966 173.2C179.3 173.2 178.706 173.1 178.186 172.9C177.68 172.7 177.28 172.38 176.986 171.94C176.706 171.5 176.566 170.913 176.566 170.18V160.7L179.306 159.94ZM182.506 163V165.04H174.726V163H182.506ZM190.158 166.62C190.158 166.047 189.991 165.6 189.658 165.28C189.338 164.96 188.911 164.8 188.378 164.8C187.884 164.8 187.451 164.927 187.078 165.18C186.704 165.433 186.431 165.853 186.258 166.44L183.918 165.72C184.144 164.84 184.638 164.133 185.398 163.6C186.171 163.067 187.204 162.8 188.498 162.8C189.378 162.8 190.144 162.94 190.798 163.22C191.451 163.487 191.958 163.893 192.318 164.44C192.691 164.987 192.878 165.673 192.878 166.5V170.56C192.878 171.067 193.118 171.32 193.598 171.32C193.824 171.32 194.038 171.287 194.238 171.22L194.078 172.92C193.731 173.093 193.298 173.18 192.778 173.18C192.311 173.18 191.891 173.1 191.518 172.94C191.144 172.78 190.851 172.54 190.638 172.22C190.424 171.887 190.318 171.473 190.318 170.98V170.9L190.798 170.82C190.718 171.327 190.498 171.76 190.138 172.12C189.778 172.467 189.338 172.733 188.818 172.92C188.311 173.107 187.784 173.2 187.238 173.2C186.558 173.2 185.971 173.1 185.478 172.9C184.984 172.687 184.604 172.38 184.338 171.98C184.071 171.58 183.938 171.087 183.938 170.5C183.938 169.753 184.178 169.147 184.658 168.68C185.138 168.2 185.824 167.873 186.718 167.7L190.478 166.94L190.458 168.64L188.058 169.12C187.604 169.213 187.258 169.34 187.018 169.5C186.791 169.647 186.678 169.893 186.678 170.24C186.678 170.573 186.798 170.827 187.038 171C187.291 171.173 187.591 171.26 187.938 171.26C188.218 171.26 188.491 171.227 188.758 171.16C189.024 171.093 189.264 170.987 189.478 170.84C189.691 170.693 189.858 170.493 189.978 170.24C190.098 169.987 190.158 169.68 190.158 169.32V166.62ZM199.091 159.94V169.74C199.091 170.22 199.211 170.573 199.451 170.8C199.705 171.013 200.045 171.12 200.471 171.12C200.805 171.12 201.098 171.073 201.351 170.98C201.605 170.873 201.831 170.733 202.031 170.56L202.471 172.38C202.151 172.633 201.751 172.833 201.271 172.98C200.791 173.127 200.285 173.2 199.751 173.2C199.085 173.2 198.491 173.1 197.971 172.9C197.465 172.7 197.065 172.38 196.771 171.94C196.491 171.5 196.351 170.913 196.351 170.18V160.7L199.091 159.94ZM202.291 163V165.04H194.511V163H202.291ZM205.525 161.56C204.952 161.56 204.525 161.44 204.245 161.2C203.965 160.947 203.825 160.58 203.825 160.1C203.825 159.607 203.965 159.24 204.245 159C204.525 158.747 204.952 158.62 205.525 158.62C206.098 158.62 206.525 158.747 206.805 159C207.085 159.24 207.225 159.607 207.225 160.1C207.225 160.58 207.085 160.947 206.805 161.2C206.525 161.44 206.098 161.56 205.525 161.56ZM206.885 163V173H204.145V163H206.885ZM214.35 162.8C215.363 162.8 216.25 163.007 217.01 163.42C217.783 163.833 218.383 164.427 218.81 165.2C219.25 165.973 219.47 166.907 219.47 168C219.47 169.08 219.25 170.013 218.81 170.8C218.383 171.573 217.783 172.167 217.01 172.58C216.25 172.993 215.363 173.2 214.35 173.2C213.35 173.2 212.463 172.993 211.69 172.58C210.916 172.167 210.31 171.573 209.87 170.8C209.443 170.013 209.23 169.08 209.23 168C209.23 166.907 209.443 165.973 209.87 165.2C210.31 164.427 210.916 163.833 211.69 163.42C212.463 163.007 213.35 162.8 214.35 162.8ZM214.35 164.84C213.843 164.84 213.41 164.96 213.05 165.2C212.703 165.427 212.436 165.773 212.25 166.24C212.063 166.707 211.97 167.293 211.97 168C211.97 168.707 212.063 169.293 212.25 169.76C212.436 170.227 212.703 170.58 213.05 170.82C213.41 171.047 213.843 171.16 214.35 171.16C214.843 171.16 215.263 171.047 215.61 170.82C215.97 170.58 216.243 170.227 216.43 169.76C216.616 169.293 216.71 168.707 216.71 168C216.71 167.293 216.616 166.707 216.43 166.24C216.243 165.773 215.97 165.427 215.61 165.2C215.263 164.96 214.843 164.84 214.35 164.84ZM221.762 173V163H224.222L224.382 166L224.042 165.68C224.202 165.027 224.456 164.487 224.802 164.06C225.149 163.633 225.569 163.32 226.062 163.12C226.569 162.907 227.122 162.8 227.722 162.8C228.416 162.8 229.029 162.933 229.562 163.2C230.109 163.467 230.536 163.873 230.842 164.42C231.162 164.953 231.322 165.627 231.322 166.44V173H228.582V167.22C228.582 166.367 228.416 165.78 228.082 165.46C227.749 165.127 227.316 164.96 226.782 164.96C226.409 164.96 226.042 165.053 225.682 165.24C225.336 165.413 225.049 165.7 224.822 166.1C224.609 166.5 224.502 167.033 224.502 167.7V173H221.762Z" fill="#2947A9"/>
</g>
<defs>
<filter id="filter0_d_27_108" x="0" y="0" width="340" height="251" filterUnits="userSpaceOnUse" color-interpolation-filters="sRGB">
<feFlood flood-opacity="0" result="BackgroundImageFix"/>
<feColorMatrix in="SourceAlpha" type="matrix" values="0 0 0 0 0 0 0 0 0 0 0 0 0 0 0 0 0 0 127 0" result="hardAlpha"/>
<feMorphology radius="2" operator="erode" in="SourceAlpha" result="effect1_dropShadow_27_108"/>
<feOffset/>
<feGaussianBlur stdDeviation="18.5"/>
<feColorMatrix type="matrix" values="0 0 0 0 0.0666667 0 0 0 0 0.0941176 0 0 0 0 0.152941 0 0 0 0.05 0"/>
<feBlend mode="normal" in2="BackgroundImageFix" result="effect1_dropShadow_27_108"/>
<feBlend mode="normal" in="SourceGraphic" in2="effect1_dropShadow_27_108" result="shape"/>
</filter>
</defs>
</svg>
