<svg width="341" height="251" viewBox="0 0 341 251" fill="none" xmlns="http://www.w3.org/2000/svg">
<g filter="url(#filter0_d_27_93)">
<rect x="35" y="35" width="271" height="181" rx="4" fill="white"/>
<g clip-path="url(#clip0_27_93)">
<rect x="150.5" y="89.6666" width="23.3333" height="23.3333" fill="#7595FD"/>
<path d="M182.152 76.3334H165.517C163.665 76.3334 162.167 77.8317 162.167 79.6834V89.0784L154.33 96.815C154.095 97.0473 153.935 97.344 153.869 97.6676C153.803 97.9913 153.835 98.3271 153.96 98.6327C154.085 98.9382 154.299 99.1996 154.573 99.3837C154.847 99.5678 155.17 99.6663 155.5 99.6667V108C155.5 108.442 155.676 108.866 155.988 109.179C156.301 109.491 156.725 109.667 157.167 109.667H183.833C184.275 109.667 184.699 109.491 185.012 109.179C185.324 108.866 185.5 108.442 185.5 108V79.6817C185.5 77.8317 184.003 76.3334 182.152 76.3334ZM168.703 98.185V106.333H158.833V97.0534L163.812 92.1384L168.703 97.1434V98.185ZM172.167 88H168.833V84.6667H172.167V88ZM178.833 101.333H175.5V98H178.833V101.333ZM178.833 94.6667H175.5V91.3334H178.833V94.6667ZM178.833 88H175.5V84.6667H178.833V88Z" fill="#292E3D"/>
<path d="M162.167 98H165.5V101.333H162.167V98Z" fill="#14171F"/>
</g>
<rect x="140.5" y="133" width="60" height="2" fill="#E0E3EB"/>
<path d="M119.565 169.36C119.312 170.213 118.912 170.927 118.365 171.5C117.818 172.073 117.172 172.5 116.425 172.78C115.678 173.06 114.858 173.2 113.965 173.2C112.658 173.2 111.525 172.927 110.565 172.38C109.618 171.833 108.885 171.053 108.365 170.04C107.858 169.027 107.605 167.813 107.605 166.4C107.605 164.987 107.858 163.773 108.365 162.76C108.885 161.747 109.618 160.967 110.565 160.42C111.525 159.873 112.645 159.6 113.925 159.6C114.832 159.6 115.652 159.727 116.385 159.98C117.118 160.22 117.738 160.593 118.245 161.1C118.765 161.607 119.145 162.247 119.385 163.02L116.885 164.08C116.658 163.28 116.312 162.713 115.845 162.38C115.378 162.033 114.778 161.86 114.045 161.86C113.325 161.86 112.692 162.033 112.145 162.38C111.612 162.727 111.198 163.24 110.905 163.92C110.612 164.587 110.465 165.413 110.465 166.4C110.465 167.373 110.598 168.2 110.865 168.88C111.145 169.56 111.552 170.073 112.085 170.42C112.618 170.767 113.272 170.94 114.045 170.94C114.765 170.94 115.385 170.747 115.905 170.36C116.438 169.973 116.812 169.387 117.025 168.6L119.565 169.36ZM126.197 162.8C127.211 162.8 128.097 163.007 128.857 163.42C129.631 163.833 130.231 164.427 130.657 165.2C131.097 165.973 131.317 166.907 131.317 168C131.317 169.08 131.097 170.013 130.657 170.8C130.231 171.573 129.631 172.167 128.857 172.58C128.097 172.993 127.211 173.2 126.197 173.2C125.197 173.2 124.311 172.993 123.537 172.58C122.764 172.167 122.157 171.573 121.717 170.8C121.291 170.013 121.077 169.08 121.077 168C121.077 166.907 121.291 165.973 121.717 165.2C122.157 164.427 122.764 163.833 123.537 163.42C124.311 163.007 125.197 162.8 126.197 162.8ZM126.197 164.84C125.691 164.84 125.257 164.96 124.897 165.2C124.551 165.427 124.284 165.773 124.097 166.24C123.911 166.707 123.817 167.293 123.817 168C123.817 168.707 123.911 169.293 124.097 169.76C124.284 170.227 124.551 170.58 124.897 170.82C125.257 171.047 125.691 171.16 126.197 171.16C126.691 171.16 127.111 171.047 127.457 170.82C127.817 170.58 128.091 170.227 128.277 169.76C128.464 169.293 128.557 168.707 128.557 168C128.557 167.293 128.464 166.707 128.277 166.24C128.091 165.773 127.817 165.427 127.457 165.2C127.111 164.96 126.691 164.84 126.197 164.84ZM133.61 173V163H136.07L136.23 166L135.89 165.68C136.05 165.027 136.303 164.487 136.65 164.06C136.997 163.633 137.417 163.32 137.91 163.12C138.417 162.907 138.97 162.8 139.57 162.8C140.263 162.8 140.877 162.933 141.41 163.2C141.957 163.467 142.383 163.873 142.69 164.42C143.01 164.953 143.17 165.627 143.17 166.44V173H140.43V167.22C140.43 166.367 140.263 165.78 139.93 165.46C139.597 165.127 139.163 164.96 138.63 164.96C138.257 164.96 137.89 165.053 137.53 165.24C137.183 165.413 136.897 165.7 136.67 166.1C136.457 166.5 136.35 167.033 136.35 167.7V173H133.61ZM149.993 173.2C148.979 173.2 148.053 173.02 147.213 172.66C146.386 172.3 145.713 171.793 145.193 171.14L146.773 169.54C147.093 170.02 147.519 170.413 148.053 170.72C148.586 171.027 149.219 171.18 149.953 171.18C150.473 171.18 150.886 171.107 151.193 170.96C151.513 170.8 151.673 170.553 151.673 170.22C151.673 170.007 151.599 169.827 151.453 169.68C151.306 169.52 151.013 169.393 150.573 169.3L148.813 168.94C147.653 168.7 146.826 168.34 146.333 167.86C145.853 167.367 145.613 166.733 145.613 165.96C145.613 165.413 145.773 164.9 146.093 164.42C146.426 163.94 146.919 163.553 147.573 163.26C148.226 162.953 149.039 162.8 150.013 162.8C151.013 162.8 151.879 162.96 152.613 163.28C153.359 163.587 153.946 164.047 154.373 164.66L152.733 166.26C152.439 165.793 152.053 165.44 151.573 165.2C151.106 164.947 150.613 164.82 150.093 164.82C149.719 164.82 149.399 164.86 149.133 164.94C148.866 165.02 148.666 165.133 148.533 165.28C148.399 165.413 148.333 165.587 148.333 165.8C148.333 166.013 148.426 166.2 148.613 166.36C148.799 166.507 149.139 166.633 149.633 166.74L151.673 167.16C152.659 167.36 153.366 167.7 153.793 168.18C154.219 168.647 154.433 169.213 154.433 169.88C154.433 170.52 154.259 171.093 153.913 171.6C153.579 172.093 153.079 172.487 152.413 172.78C151.759 173.06 150.953 173.2 149.993 173.2ZM160.158 159.94V169.74C160.158 170.22 160.278 170.573 160.518 170.8C160.771 171.013 161.111 171.12 161.538 171.12C161.871 171.12 162.164 171.073 162.418 170.98C162.671 170.873 162.898 170.733 163.098 170.56L163.538 172.38C163.218 172.633 162.818 172.833 162.338 172.98C161.858 173.127 161.351 173.2 160.818 173.2C160.151 173.2 159.558 173.1 159.038 172.9C158.531 172.7 158.131 172.38 157.838 171.94C157.558 171.5 157.418 170.913 157.418 170.18V160.7L160.158 159.94ZM163.358 163V165.04H155.578V163H163.358ZM165.211 173V163H167.591L167.771 164.96C168.038 164.267 168.425 163.733 168.931 163.36C169.451 162.987 170.098 162.8 170.871 162.8C171.098 162.8 171.305 162.82 171.491 162.86C171.678 162.9 171.831 162.953 171.951 163.02L171.631 165.32C171.498 165.267 171.331 165.227 171.131 165.2C170.945 165.173 170.698 165.16 170.391 165.16C169.991 165.16 169.605 165.26 169.231 165.46C168.858 165.647 168.551 165.94 168.311 166.34C168.071 166.727 167.951 167.22 167.951 167.82V173H165.211ZM177.129 173.2C176.462 173.2 175.862 173.08 175.329 172.84C174.796 172.6 174.369 172.22 174.049 171.7C173.742 171.167 173.589 170.48 173.589 169.64V163H176.329V168.98C176.329 169.753 176.489 170.293 176.809 170.6C177.129 170.893 177.589 171.04 178.189 171.04C178.469 171.04 178.742 170.993 179.009 170.9C179.276 170.793 179.509 170.633 179.709 170.42C179.922 170.207 180.089 169.933 180.209 169.6C180.329 169.253 180.389 168.847 180.389 168.38V163H183.129V173H180.689L180.589 171.26C180.256 171.927 179.796 172.42 179.209 172.74C178.636 173.047 177.942 173.2 177.129 173.2ZM190.552 162.8C191.446 162.8 192.199 162.933 192.812 163.2C193.439 163.453 193.939 163.807 194.312 164.26C194.699 164.7 194.972 165.193 195.132 165.74L192.572 166.66C192.439 166.06 192.212 165.607 191.892 165.3C191.572 164.993 191.139 164.84 190.592 164.84C190.086 164.84 189.652 164.96 189.292 165.2C188.932 165.427 188.659 165.78 188.472 166.26C188.286 166.727 188.192 167.313 188.192 168.02C188.192 168.727 188.286 169.313 188.472 169.78C188.672 170.247 188.952 170.593 189.312 170.82C189.686 171.047 190.119 171.16 190.612 171.16C191.012 171.16 191.352 171.093 191.632 170.96C191.912 170.813 192.139 170.607 192.312 170.34C192.499 170.073 192.626 169.753 192.692 169.38L195.172 170.18C195.026 170.78 194.752 171.307 194.352 171.76C193.952 172.213 193.439 172.567 192.812 172.82C192.186 173.073 191.459 173.2 190.632 173.2C189.606 173.2 188.699 172.993 187.912 172.58C187.126 172.167 186.519 171.573 186.092 170.8C185.666 170.027 185.452 169.093 185.452 168C185.452 166.907 185.666 165.973 186.092 165.2C186.519 164.427 187.119 163.833 187.892 163.42C188.666 163.007 189.552 162.8 190.552 162.8ZM200.841 159.94V169.74C200.841 170.22 200.961 170.573 201.201 170.8C201.455 171.013 201.795 171.12 202.221 171.12C202.555 171.12 202.848 171.073 203.101 170.98C203.355 170.873 203.581 170.733 203.781 170.56L204.221 172.38C203.901 172.633 203.501 172.833 203.021 172.98C202.541 173.127 202.035 173.2 201.501 173.2C200.835 173.2 200.241 173.1 199.721 172.9C199.215 172.7 198.815 172.38 198.521 171.94C198.241 171.5 198.101 170.913 198.101 170.18V160.7L200.841 159.94ZM204.041 163V165.04H196.261V163H204.041ZM207.275 161.56C206.702 161.56 206.275 161.44 205.995 161.2C205.715 160.947 205.575 160.58 205.575 160.1C205.575 159.607 205.715 159.24 205.995 159C206.275 158.747 206.702 158.62 207.275 158.62C207.848 158.62 208.275 158.747 208.555 159C208.835 159.24 208.975 159.607 208.975 160.1C208.975 160.58 208.835 160.947 208.555 161.2C208.275 161.44 207.848 161.56 207.275 161.56ZM208.635 163V173H205.895V163H208.635ZM216.1 162.8C217.113 162.8 218 163.007 218.76 163.42C219.533 163.833 220.133 164.427 220.56 165.2C221 165.973 221.22 166.907 221.22 168C221.22 169.08 221 170.013 220.56 170.8C220.133 171.573 219.533 172.167 218.76 172.58C218 172.993 217.113 173.2 216.1 173.2C215.1 173.2 214.213 172.993 213.44 172.58C212.666 172.167 212.06 171.573 211.62 170.8C211.193 170.013 210.98 169.08 210.98 168C210.98 166.907 211.193 165.973 211.62 165.2C212.06 164.427 212.666 163.833 213.44 163.42C214.213 163.007 215.1 162.8 216.1 162.8ZM216.1 164.84C215.593 164.84 215.16 164.96 214.8 165.2C214.453 165.427 214.186 165.773 214 166.24C213.813 166.707 213.72 167.293 213.72 168C213.72 168.707 213.813 169.293 214 169.76C214.186 170.227 214.453 170.58 214.8 170.82C215.16 171.047 215.593 171.16 216.1 171.16C216.593 171.16 217.013 171.047 217.36 170.82C217.72 170.58 217.993 170.227 218.18 169.76C218.366 169.293 218.46 168.707 218.46 168C218.46 167.293 218.366 166.707 218.18 166.24C217.993 165.773 217.72 165.427 217.36 165.2C217.013 164.96 216.593 164.84 216.1 164.84ZM223.512 173V163H225.972L226.132 166L225.792 165.68C225.952 165.027 226.206 164.487 226.552 164.06C226.899 163.633 227.319 163.32 227.812 163.12C228.319 162.907 228.872 162.8 229.472 162.8C230.166 162.8 230.779 162.933 231.312 163.2C231.859 163.467 232.286 163.873 232.592 164.42C232.912 164.953 233.072 165.627 233.072 166.44V173H230.332V167.22C230.332 166.367 230.166 165.78 229.832 165.46C229.499 165.127 229.066 164.96 228.532 164.96C228.159 164.96 227.792 165.053 227.432 165.24C227.086 165.413 226.799 165.7 226.572 166.1C226.359 166.5 226.252 167.033 226.252 167.7V173H223.512Z" fill="#2947A9"/>
</g>
<defs>
<filter id="filter0_d_27_93" x="0" y="0" width="341" height="251" filterUnits="userSpaceOnUse" color-interpolation-filters="sRGB">
<feFlood flood-opacity="0" result="BackgroundImageFix"/>
<feColorMatrix in="SourceAlpha" type="matrix" values="0 0 0 0 0 0 0 0 0 0 0 0 0 0 0 0 0 0 127 0" result="hardAlpha"/>
<feMorphology radius="2" operator="erode" in="SourceAlpha" result="effect1_dropShadow_27_93"/>
<feOffset/>
<feGaussianBlur stdDeviation="18.5"/>
<feColorMatrix type="matrix" values="0 0 0 0 0.0666667 0 0 0 0 0.0941176 0 0 0 0 0.152941 0 0 0 0.05 0"/>
<feBlend mode="normal" in2="BackgroundImageFix" result="effect1_dropShadow_27_93"/>
<feBlend mode="normal" in="SourceGraphic" in2="effect1_dropShadow_27_93" result="shape"/>
</filter>
<clipPath id="clip0_27_93">
<rect width="40" height="40" fill="white" transform="translate(150.5 73)"/>
</clipPath>
</defs>
</svg>
