<svg width="340" height="251" viewBox="0 0 340 251" fill="none" xmlns="http://www.w3.org/2000/svg">
<g filter="url(#filter0_d_27_140)">
<rect x="35" y="35" width="270" height="181" rx="4" fill="#2947A9"/>
<rect x="150" y="89.6667" width="23.3333" height="23.3333" fill="#7595FD"/>
<path d="M185 96.3333C185 95.4167 184.25 94.6667 183.333 94.6667H180V98H183.333C184.25 98 185 97.25 185 96.3333ZM183.333 101.333H180V104.667H183.333C184.25 104.667 185 103.917 185 103C185 102.083 184.25 101.333 183.333 101.333ZM170 96.3333H166.667V103H170C170 104.833 171.5 106.333 173.333 106.333H178.333V93H173.333C171.5 93 170 94.5 170 96.3333Z" fill="white"/>
<path d="M158.333 94.6667C158.333 92.8334 159.833 91.3334 161.667 91.3334H164.167C167.383 91.3334 170 88.7167 170 85.5001C170 82.2834 167.383 79.6667 164.167 79.6667H158.333C157.417 79.6667 156.667 80.4167 156.667 81.3334C156.667 82.2501 157.417 83.0001 158.333 83.0001H164.167C165.55 83.0001 166.667 84.1167 166.667 85.5001C166.667 86.8834 165.55 88.0001 164.167 88.0001H161.667C157.983 88.0001 155 90.9834 155 94.6667C155 98.3501 157.983 101.333 161.667 101.333H165V98.0001H161.667C159.833 98.0001 158.333 96.5001 158.333 94.6667Z" fill="white"/>
<rect x="140" y="133" width="60" height="2" fill="#E0E3EB"/>
<path d="M133.781 173V159.8H143.681V162.02H136.541V165.3H142.161V167.42H136.541V170.78H143.961V173H133.781ZM148.857 158.62V169.92C148.857 170.387 148.937 170.713 149.097 170.9C149.257 171.087 149.523 171.18 149.897 171.18C150.123 171.18 150.31 171.167 150.457 171.14C150.603 171.1 150.79 171.047 151.017 170.98L150.777 172.78C150.55 172.913 150.263 173.013 149.917 173.08C149.583 173.16 149.25 173.2 148.917 173.2C147.943 173.2 147.23 172.967 146.777 172.5C146.337 172.02 146.117 171.26 146.117 170.22V158.62H148.857ZM157.184 173.2C156.13 173.2 155.21 172.993 154.424 172.58C153.65 172.167 153.05 171.573 152.624 170.8C152.197 170.027 151.984 169.093 151.984 168C151.984 166.907 152.197 165.973 152.624 165.2C153.05 164.427 153.644 163.833 154.404 163.42C155.177 163.007 156.057 162.8 157.044 162.8C158.057 162.8 158.917 163.007 159.624 163.42C160.33 163.82 160.87 164.373 161.244 165.08C161.617 165.773 161.804 166.567 161.804 167.46C161.804 167.727 161.797 167.98 161.784 168.22C161.77 168.46 161.75 168.673 161.724 168.86H153.744V166.96H160.524L159.204 167.44C159.204 166.6 159.01 165.953 158.624 165.5C158.25 165.047 157.717 164.82 157.024 164.82C156.517 164.82 156.077 164.94 155.704 165.18C155.344 165.42 155.07 165.78 154.884 166.26C154.697 166.727 154.604 167.32 154.604 168.04C154.604 168.747 154.704 169.333 154.904 169.8C155.117 170.253 155.41 170.593 155.784 170.82C156.17 171.047 156.63 171.16 157.164 171.16C157.75 171.16 158.224 171.047 158.584 170.82C158.944 170.593 159.224 170.28 159.424 169.88L161.604 170.72C161.39 171.24 161.064 171.687 160.624 172.06C160.197 172.433 159.684 172.72 159.084 172.92C158.497 173.107 157.864 173.2 157.184 173.2ZM168.666 162.8C169.559 162.8 170.312 162.933 170.926 163.2C171.552 163.453 172.052 163.807 172.426 164.26C172.812 164.7 173.086 165.193 173.246 165.74L170.686 166.66C170.552 166.06 170.326 165.607 170.006 165.3C169.686 164.993 169.252 164.84 168.706 164.84C168.199 164.84 167.766 164.96 167.406 165.2C167.046 165.427 166.772 165.78 166.586 166.26C166.399 166.727 166.306 167.313 166.306 168.02C166.306 168.727 166.399 169.313 166.586 169.78C166.786 170.247 167.066 170.593 167.426 170.82C167.799 171.047 168.232 171.16 168.726 171.16C169.126 171.16 169.466 171.093 169.746 170.96C170.026 170.813 170.252 170.607 170.426 170.34C170.612 170.073 170.739 169.753 170.806 169.38L173.286 170.18C173.139 170.78 172.866 171.307 172.466 171.76C172.066 172.213 171.552 172.567 170.926 172.82C170.299 173.073 169.572 173.2 168.746 173.2C167.719 173.2 166.812 172.993 166.026 172.58C165.239 172.167 164.632 171.573 164.206 170.8C163.779 170.027 163.566 169.093 163.566 168C163.566 166.907 163.779 165.973 164.206 165.2C164.632 164.427 165.232 163.833 166.006 163.42C166.779 163.007 167.666 162.8 168.666 162.8ZM178.955 159.94V169.74C178.955 170.22 179.075 170.573 179.315 170.8C179.568 171.013 179.908 171.12 180.335 171.12C180.668 171.12 180.961 171.073 181.215 170.98C181.468 170.873 181.695 170.733 181.895 170.56L182.335 172.38C182.015 172.633 181.615 172.833 181.135 172.98C180.655 173.127 180.148 173.2 179.615 173.2C178.948 173.2 178.355 173.1 177.835 172.9C177.328 172.7 176.928 172.38 176.635 171.94C176.355 171.5 176.215 170.913 176.215 170.18V160.7L178.955 159.94ZM182.155 163V165.04H174.375V163H182.155ZM184.008 173V163H186.388L186.568 164.96C186.835 164.267 187.222 163.733 187.728 163.36C188.248 162.987 188.895 162.8 189.668 162.8C189.895 162.8 190.102 162.82 190.288 162.86C190.475 162.9 190.628 162.953 190.748 163.02L190.428 165.32C190.295 165.267 190.128 165.227 189.928 165.2C189.742 165.173 189.495 165.16 189.188 165.16C188.788 165.16 188.402 165.26 188.028 165.46C187.655 165.647 187.348 165.94 187.108 166.34C186.868 166.727 186.748 167.22 186.748 167.82V173H184.008ZM193.826 161.56C193.253 161.56 192.826 161.44 192.546 161.2C192.266 160.947 192.126 160.58 192.126 160.1C192.126 159.607 192.266 159.24 192.546 159C192.826 158.747 193.253 158.62 193.826 158.62C194.399 158.62 194.826 158.747 195.106 159C195.386 159.24 195.526 159.607 195.526 160.1C195.526 160.58 195.386 160.947 195.106 161.2C194.826 161.44 194.399 161.56 193.826 161.56ZM195.186 163V173H192.446V163H195.186ZM202.63 162.8C203.524 162.8 204.277 162.933 204.89 163.2C205.517 163.453 206.017 163.807 206.39 164.26C206.777 164.7 207.05 165.193 207.21 165.74L204.65 166.66C204.517 166.06 204.29 165.607 203.97 165.3C203.65 164.993 203.217 164.84 202.67 164.84C202.164 164.84 201.73 164.96 201.37 165.2C201.01 165.427 200.737 165.78 200.55 166.26C200.364 166.727 200.27 167.313 200.27 168.02C200.27 168.727 200.364 169.313 200.55 169.78C200.75 170.247 201.03 170.593 201.39 170.82C201.764 171.047 202.197 171.16 202.69 171.16C203.09 171.16 203.43 171.093 203.71 170.96C203.99 170.813 204.217 170.607 204.39 170.34C204.577 170.073 204.704 169.753 204.77 169.38L207.25 170.18C207.104 170.78 206.83 171.307 206.43 171.76C206.03 172.213 205.517 172.567 204.89 172.82C204.264 173.073 203.537 173.2 202.71 173.2C201.684 173.2 200.777 172.993 199.99 172.58C199.204 172.167 198.597 171.573 198.17 170.8C197.744 170.027 197.53 169.093 197.53 168C197.53 166.907 197.744 165.973 198.17 165.2C198.597 164.427 199.197 163.833 199.97 163.42C200.744 163.007 201.63 162.8 202.63 162.8Z" fill="white"/>
</g>
<defs>
<filter id="filter0_d_27_140" x="0" y="0" width="340" height="251" filterUnits="userSpaceOnUse" color-interpolation-filters="sRGB">
<feFlood flood-opacity="0" result="BackgroundImageFix"/>
<feColorMatrix in="SourceAlpha" type="matrix" values="0 0 0 0 0 0 0 0 0 0 0 0 0 0 0 0 0 0 127 0" result="hardAlpha"/>
<feMorphology radius="2" operator="erode" in="SourceAlpha" result="effect1_dropShadow_27_140"/>
<feOffset/>
<feGaussianBlur stdDeviation="18.5"/>
<feColorMatrix type="matrix" values="0 0 0 0 0.0666667 0 0 0 0 0.0941176 0 0 0 0 0.152941 0 0 0 0.05 0"/>
<feBlend mode="normal" in2="BackgroundImageFix" result="effect1_dropShadow_27_140"/>
<feBlend mode="normal" in="SourceGraphic" in2="effect1_dropShadow_27_140" result="shape"/>
</filter>
</defs>
</svg>
