<svg width="327" height="179" viewBox="0 0 327 179" fill="none" xmlns="http://www.w3.org/2000/svg">
<g filter="url(#filter0_dd_32_60)">
<rect x="12" width="280" height="155" rx="4" fill="white"/>
<path d="M64.392 29.904C67.8 29.904 70.752 30.432 73.248 31.488C75.792 32.496 77.736 33.96 79.08 35.88C80.472 37.752 81.168 40.032 81.168 42.72C81.168 45.216 80.544 47.376 79.296 49.2C78.096 51.024 76.344 52.416 74.04 53.376V53.448C76.824 54.456 79.008 55.92 80.592 57.84C82.176 59.76 82.968 62.184 82.968 65.112C82.968 67.896 82.2 70.296 80.664 72.312C79.176 74.328 77.04 75.912 74.256 77.064C71.52 78.168 68.232 78.72 64.392 78.72C60.6 78.72 57.312 78.168 54.528 77.064C51.792 75.912 49.656 74.328 48.12 72.312C46.632 70.296 45.888 67.896 45.888 65.112C45.888 62.232 46.68 59.832 48.264 57.912C49.848 55.944 52.056 54.456 54.888 53.448V53.376C52.584 52.464 50.808 51.096 49.56 49.272C48.312 47.4 47.688 45.216 47.688 42.72C47.688 40.032 48.36 37.752 49.704 35.88C51.096 33.96 53.064 32.496 55.608 31.488C58.152 30.432 61.08 29.904 64.392 29.904ZM64.464 37.536C62.208 37.536 60.408 38.088 59.064 39.192C57.72 40.296 57.048 41.832 57.048 43.8C57.048 45.768 57.72 47.304 59.064 48.408C60.408 49.512 62.208 50.064 64.464 50.064C66.672 50.064 68.424 49.512 69.72 48.408C71.064 47.304 71.736 45.768 71.736 43.8C71.736 41.832 71.088 40.296 69.792 39.192C68.496 38.088 66.72 37.536 64.464 37.536ZM64.464 71.016C66.288 71.016 67.848 70.752 69.144 70.224C70.44 69.696 71.424 68.904 72.096 67.848C72.816 66.792 73.176 65.544 73.176 64.104C73.176 62.664 72.816 61.416 72.096 60.36C71.424 59.304 70.416 58.512 69.072 57.984C67.776 57.408 66.24 57.12 64.464 57.12C62.688 57.12 61.128 57.408 59.784 57.984C58.44 58.512 57.408 59.304 56.688 60.36C55.968 61.416 55.608 62.664 55.608 64.104C55.608 65.544 55.968 66.792 56.688 67.848C57.408 68.904 58.416 69.696 59.712 70.224C61.056 70.752 62.64 71.016 64.464 71.016ZM113.211 78V66.84H90.0274V60.36C90.2674 59.88 90.6034 59.304 91.0354 58.632C91.5154 57.912 92.0434 57.096 92.6194 56.184L110.331 30.48H122.211V59.64H129.915V66.84H122.211V78H113.211ZM98.5234 59.64H113.283V43.944C113.283 42.936 113.307 41.856 113.355 40.704C113.403 39.552 113.451 38.424 113.499 37.32H113.355C112.827 38.376 112.179 39.528 111.411 40.776C110.691 41.976 110.019 43.056 109.395 44.016L99.4594 58.272C99.3154 58.512 99.1474 58.752 98.9554 58.992C98.8114 59.184 98.6674 59.4 98.5234 59.64Z" fill="#292E3D"/>
<rect x="58" y="97" width="7" height="28" fill="#F9995D"/>
<path d="M92.024 103.16V119H90.104V103.16H92.024ZM81.512 103.16V119H79.592V103.16H81.512ZM90.992 110.072V111.872H80.6V110.072H90.992ZM103.724 111.248C103.724 110.352 103.484 109.664 103.004 109.184C102.524 108.688 101.844 108.44 100.964 108.44C100.132 108.44 99.4284 108.624 98.8524 108.992C98.2764 109.344 97.8524 109.92 97.5804 110.72L96.0204 109.76C96.3404 108.864 96.9324 108.144 97.7964 107.6C98.6604 107.04 99.7324 106.76 101.012 106.76C101.876 106.76 102.66 106.912 103.364 107.216C104.068 107.504 104.62 107.952 105.02 108.56C105.436 109.152 105.644 109.92 105.644 110.864V116.672C105.644 117.248 105.948 117.536 106.556 117.536C106.86 117.536 107.156 117.496 107.444 117.416L107.348 118.928C107.028 119.088 106.612 119.168 106.1 119.168C105.636 119.168 105.22 119.08 104.852 118.904C104.484 118.728 104.196 118.464 103.988 118.112C103.78 117.744 103.676 117.288 103.676 116.744V116.504L104.156 116.576C103.964 117.2 103.636 117.712 103.172 118.112C102.708 118.496 102.188 118.784 101.612 118.976C101.036 119.152 100.468 119.24 99.9084 119.24C99.2044 119.24 98.5484 119.12 97.9404 118.88C97.3324 118.64 96.8444 118.28 96.4764 117.8C96.1244 117.304 95.9484 116.696 95.9484 115.976C95.9484 115.08 96.2444 114.344 96.8364 113.768C97.4444 113.176 98.2844 112.776 99.3564 112.568L104.108 111.632V113.216L100.244 114.008C99.4604 114.168 98.8764 114.392 98.4924 114.68C98.1084 114.968 97.9164 115.368 97.9164 115.88C97.9164 116.376 98.1084 116.784 98.4924 117.104C98.8924 117.408 99.4524 117.56 100.172 117.56C100.636 117.56 101.076 117.504 101.492 117.392C101.924 117.264 102.308 117.08 102.644 116.84C102.98 116.584 103.244 116.272 103.436 115.904C103.628 115.52 103.724 115.072 103.724 114.56V111.248ZM110.31 124.04V107H111.99L112.158 109.928L111.894 109.592C112.102 109.032 112.414 108.544 112.83 108.128C113.246 107.696 113.75 107.36 114.342 107.12C114.934 106.88 115.574 106.76 116.262 106.76C117.238 106.76 118.134 107.008 118.95 107.504C119.782 108 120.446 108.712 120.942 109.64C121.438 110.568 121.686 111.688 121.686 113C121.686 114.296 121.43 115.416 120.918 116.36C120.422 117.288 119.758 118 118.926 118.496C118.094 118.992 117.182 119.24 116.19 119.24C115.198 119.24 114.326 119 113.574 118.52C112.838 118.024 112.31 117.4 111.99 116.648L112.23 116.288V124.04H110.31ZM115.998 117.56C117.182 117.56 118.102 117.144 118.758 116.312C119.43 115.48 119.766 114.376 119.766 113C119.766 111.624 119.438 110.52 118.782 109.688C118.142 108.856 117.238 108.44 116.07 108.44C115.302 108.44 114.63 108.632 114.054 109.016C113.478 109.384 113.03 109.912 112.71 110.6C112.39 111.272 112.23 112.072 112.23 113C112.23 113.912 112.382 114.712 112.686 115.4C113.006 116.088 113.446 116.624 114.006 117.008C114.582 117.376 115.246 117.56 115.998 117.56ZM125.357 124.04V107H127.037L127.205 109.928L126.941 109.592C127.149 109.032 127.461 108.544 127.877 108.128C128.293 107.696 128.797 107.36 129.389 107.12C129.981 106.88 130.621 106.76 131.309 106.76C132.285 106.76 133.181 107.008 133.997 107.504C134.829 108 135.493 108.712 135.989 109.64C136.485 110.568 136.733 111.688 136.733 113C136.733 114.296 136.477 115.416 135.965 116.36C135.469 117.288 134.805 118 133.973 118.496C133.141 118.992 132.229 119.24 131.237 119.24C130.245 119.24 129.373 119 128.621 118.52C127.885 118.024 127.357 117.4 127.037 116.648L127.277 116.288V124.04H125.357ZM131.045 117.56C132.229 117.56 133.149 117.144 133.805 116.312C134.477 115.48 134.813 114.376 134.813 113C134.813 111.624 134.485 110.52 133.829 109.688C133.189 108.856 132.285 108.44 131.117 108.44C130.349 108.44 129.677 108.632 129.101 109.016C128.525 109.384 128.077 109.912 127.757 110.6C127.437 111.272 127.277 112.072 127.277 113C127.277 113.912 127.429 114.712 127.733 115.4C128.053 116.088 128.493 116.624 129.053 117.008C129.629 117.376 130.293 117.56 131.045 117.56ZM149.916 107L144.276 121.016C143.972 121.8 143.636 122.416 143.268 122.864C142.916 123.328 142.516 123.656 142.068 123.848C141.636 124.056 141.132 124.16 140.556 124.16C140.012 124.16 139.508 124.08 139.044 123.92C138.596 123.776 138.196 123.576 137.844 123.32L138.372 121.64C138.692 121.928 139.028 122.136 139.38 122.264C139.748 122.408 140.108 122.48 140.46 122.48C140.876 122.48 141.268 122.352 141.636 122.096C142.004 121.84 142.34 121.32 142.644 120.536L143.268 118.976L142.068 116.12L138.252 107H140.436L143.436 114.824L144.18 116.96L145.044 114.584L147.852 107H149.916ZM173.126 114.944C172.79 115.84 172.31 116.616 171.686 117.272C171.062 117.912 170.326 118.4 169.478 118.736C168.646 119.072 167.734 119.24 166.742 119.24C165.238 119.24 163.934 118.912 162.83 118.256C161.742 117.584 160.894 116.64 160.286 115.424C159.694 114.208 159.398 112.76 159.398 111.08C159.398 109.4 159.694 107.952 160.286 106.736C160.894 105.52 161.742 104.584 162.83 103.928C163.934 103.256 165.222 102.92 166.694 102.92C167.718 102.92 168.63 103.064 169.43 103.352C170.23 103.624 170.91 104.04 171.47 104.6C172.046 105.144 172.502 105.816 172.838 106.616L170.942 107.504C170.59 106.592 170.078 105.904 169.406 105.44C168.75 104.96 167.894 104.72 166.838 104.72C165.766 104.72 164.822 104.976 164.006 105.488C163.19 105.984 162.55 106.704 162.086 107.648C161.638 108.592 161.414 109.736 161.414 111.08C161.414 112.408 161.63 113.552 162.062 114.512C162.494 115.456 163.11 116.184 163.91 116.696C164.71 117.192 165.654 117.44 166.742 117.44C167.798 117.44 168.718 117.176 169.502 116.648C170.286 116.104 170.854 115.296 171.206 114.224L173.126 114.944ZM178.275 101.48V115.952C178.275 116.56 178.387 116.984 178.611 117.224C178.835 117.448 179.195 117.56 179.691 117.56C180.011 117.56 180.275 117.536 180.483 117.488C180.691 117.44 180.971 117.352 181.323 117.224L181.011 118.904C180.755 119.016 180.475 119.096 180.171 119.144C179.867 119.208 179.555 119.24 179.235 119.24C178.259 119.24 177.531 118.976 177.051 118.448C176.587 117.92 176.355 117.112 176.355 116.024V101.48H178.275ZM184.747 104.696C184.315 104.696 183.963 104.568 183.691 104.312C183.435 104.04 183.307 103.688 183.307 103.256C183.307 102.824 183.435 102.48 183.691 102.224C183.963 101.952 184.315 101.816 184.747 101.816C185.179 101.816 185.523 101.952 185.779 102.224C186.051 102.48 186.187 102.824 186.187 103.256C186.187 103.688 186.051 104.04 185.779 104.312C185.523 104.568 185.179 104.696 184.747 104.696ZM185.707 107V119H183.787V107H185.707ZM195.178 119.24C194.042 119.24 193.026 118.992 192.13 118.496C191.25 118 190.562 117.288 190.066 116.36C189.57 115.416 189.322 114.296 189.322 113C189.322 111.704 189.57 110.592 190.066 109.664C190.562 108.72 191.242 108 192.106 107.504C192.97 107.008 193.954 106.76 195.058 106.76C196.178 106.76 197.13 107 197.914 107.48C198.714 107.96 199.322 108.616 199.738 109.448C200.154 110.264 200.362 111.184 200.362 112.208C200.362 112.48 200.354 112.728 200.338 112.952C200.322 113.176 200.298 113.376 200.266 113.552H190.57V111.848H199.426L198.442 112.04C198.442 110.888 198.122 110 197.482 109.376C196.858 108.752 196.034 108.44 195.01 108.44C194.226 108.44 193.546 108.624 192.97 108.992C192.41 109.344 191.97 109.864 191.65 110.552C191.346 111.224 191.194 112.04 191.194 113C191.194 113.944 191.354 114.76 191.674 115.448C191.994 116.136 192.442 116.664 193.018 117.032C193.61 117.384 194.314 117.56 195.13 117.56C196.01 117.56 196.722 117.392 197.266 117.056C197.826 116.72 198.274 116.264 198.61 115.688L200.122 116.576C199.818 117.12 199.426 117.592 198.946 117.992C198.482 118.392 197.93 118.704 197.29 118.928C196.666 119.136 195.962 119.24 195.178 119.24ZM204.013 119V107H205.693L205.861 109.688L205.549 109.424C205.805 108.784 206.149 108.272 206.581 107.888C207.013 107.488 207.509 107.2 208.069 107.024C208.645 106.848 209.237 106.76 209.845 106.76C210.709 106.76 211.493 106.928 212.197 107.264C212.901 107.584 213.461 108.08 213.877 108.752C214.309 109.424 214.525 110.28 214.525 111.32V119H212.605V111.992C212.605 110.664 212.317 109.744 211.741 109.232C211.181 108.704 210.485 108.44 209.653 108.44C209.077 108.44 208.501 108.576 207.925 108.848C207.349 109.12 206.869 109.56 206.485 110.168C206.117 110.776 205.933 111.592 205.933 112.616V119H204.013ZM221.541 103.592V115.688C221.541 116.28 221.709 116.72 222.045 117.008C222.381 117.296 222.813 117.44 223.341 117.44C223.805 117.44 224.205 117.36 224.541 117.2C224.877 117.04 225.181 116.824 225.453 116.552L226.125 118.16C225.757 118.496 225.317 118.76 224.805 118.952C224.309 119.144 223.733 119.24 223.077 119.24C222.469 119.24 221.901 119.136 221.373 118.928C220.845 118.704 220.421 118.36 220.101 117.896C219.797 117.416 219.637 116.792 219.621 116.024V104.12L221.541 103.592ZM225.909 107V108.656H217.221V107H225.909ZM233.083 119.24C231.915 119.24 230.835 118.992 229.843 118.496C228.867 118 228.115 117.296 227.587 116.384L229.219 115.208C229.571 115.944 230.083 116.52 230.755 116.936C231.443 117.352 232.267 117.56 233.227 117.56C234.075 117.56 234.739 117.4 235.219 117.08C235.699 116.744 235.939 116.312 235.939 115.784C235.939 115.448 235.827 115.144 235.603 114.872C235.395 114.584 234.987 114.376 234.379 114.248L231.499 113.648C230.331 113.408 229.491 113.008 228.979 112.448C228.483 111.888 228.235 111.192 228.235 110.36C228.235 109.704 228.419 109.104 228.787 108.56C229.171 108.016 229.707 107.584 230.395 107.264C231.099 106.928 231.923 106.76 232.867 106.76C234.051 106.76 235.051 106.992 235.867 107.456C236.683 107.92 237.291 108.576 237.691 109.424L236.083 110.48C235.811 109.776 235.371 109.264 234.763 108.944C234.155 108.608 233.523 108.44 232.867 108.44C232.291 108.44 231.795 108.52 231.379 108.68C230.979 108.84 230.667 109.064 230.443 109.352C230.235 109.624 230.131 109.936 230.131 110.288C230.131 110.64 230.251 110.968 230.491 111.272C230.731 111.56 231.179 111.768 231.835 111.896L234.835 112.52C235.955 112.744 236.739 113.112 237.187 113.624C237.635 114.136 237.859 114.76 237.859 115.496C237.859 116.248 237.659 116.912 237.259 117.488C236.859 118.048 236.299 118.48 235.579 118.784C234.859 119.088 234.027 119.24 233.083 119.24Z" fill="#667299"/>
<rect x="12.5" y="0.5" width="279" height="154" rx="3.5" stroke="white"/>
</g>
<defs>
<filter id="filter0_dd_32_60" x="0" y="0" width="327" height="179" filterUnits="userSpaceOnUse" color-interpolation-filters="sRGB">
<feFlood flood-opacity="0" result="BackgroundImageFix"/>
<feColorMatrix in="SourceAlpha" type="matrix" values="0 0 0 0 0 0 0 0 0 0 0 0 0 0 0 0 0 0 127 0" result="hardAlpha"/>
<feMorphology radius="2" operator="erode" in="SourceAlpha" result="effect1_dropShadow_32_60"/>
<feOffset dy="4"/>
<feGaussianBlur stdDeviation="3"/>
<feColorMatrix type="matrix" values="0 0 0 0 0.0666667 0 0 0 0 0.0941176 0 0 0 0 0.152941 0 0 0 0.05 0"/>
<feBlend mode="normal" in2="BackgroundImageFix" result="effect1_dropShadow_32_60"/>
<feColorMatrix in="SourceAlpha" type="matrix" values="0 0 0 0 0 0 0 0 0 0 0 0 0 0 0 0 0 0 127 0" result="hardAlpha"/>
<feMorphology radius="4" operator="erode" in="SourceAlpha" result="effect2_dropShadow_32_60"/>
<feOffset dy="12"/>
<feGaussianBlur stdDeviation="8"/>
<feColorMatrix type="matrix" values="0 0 0 0 0.0666667 0 0 0 0 0.0941176 0 0 0 0 0.152941 0 0 0 0.1 0"/>
<feBlend mode="normal" in2="effect1_dropShadow_32_60" result="effect2_dropShadow_32_60"/>
<feBlend mode="normal" in="SourceGraphic" in2="effect2_dropShadow_32_60" result="shape"/>
</filter>
</defs>
</svg>
