<svg width="385" height="179" viewBox="0 0 385 179" fill="none" xmlns="http://www.w3.org/2000/svg">
<g filter="url(#filter0_dd_32_55)">
<rect x="12" width="361" height="155" rx="4" fill="white"/>
<path d="M56.2387 78V47.904C56.2387 46.8 56.2387 45.672 56.2387 44.52C56.2867 43.32 56.3347 42.096 56.3827 40.848C54.7507 42.336 52.9267 43.632 50.9107 44.736C48.8947 45.84 46.8307 46.608 44.7187 47.04L43.4227 38.688C44.5267 38.592 45.7507 38.28 47.0947 37.752C48.4867 37.176 49.8787 36.504 51.2707 35.736C52.7107 34.92 54.0067 34.08 55.1587 33.216C56.3587 32.304 57.2707 31.392 57.8947 30.48H65.9587V78H56.2387ZM76.6878 78V71.304C81.0078 68.376 84.6558 65.736 87.6318 63.384C90.6558 60.984 93.0798 58.776 94.9038 56.76C96.7758 54.696 98.1198 52.752 98.9358 50.928C99.7998 49.104 100.232 47.28 100.232 45.456C100.232 43.248 99.5598 41.448 98.2158 40.056C96.8718 38.616 94.9758 37.896 92.5278 37.896C89.8398 37.896 87.7278 38.808 86.1918 40.632C84.7038 42.456 83.8878 45.048 83.7438 48.408L75.1758 45.168C75.4158 41.904 76.2798 39.144 77.7678 36.888C79.3038 34.584 81.3678 32.832 83.9598 31.632C86.5998 30.384 89.6238 29.76 93.0318 29.76C95.9598 29.76 98.4798 30.168 100.592 30.984C102.752 31.8 104.528 32.928 105.92 34.368C107.36 35.76 108.44 37.368 109.16 39.192C109.88 41.016 110.24 42.912 110.24 44.88C110.24 47.952 109.472 50.856 107.936 53.592C106.448 56.328 104.144 59.04 101.024 61.728C97.9038 64.416 93.9438 67.248 89.1438 70.224V70.296C89.8638 70.248 90.7278 70.2 91.7358 70.152C92.7918 70.104 93.8718 70.08 94.9758 70.08C96.0798 70.032 97.0398 70.008 97.8558 70.008H110.96V78H76.6878ZM135.931 78.72C131.179 78.72 127.123 77.736 123.763 75.768C120.451 73.752 118.171 70.872 116.923 67.128L126.283 63.024C126.619 64.752 127.171 66.192 127.939 67.344C128.707 68.448 129.739 69.288 131.035 69.864C132.379 70.44 133.963 70.728 135.787 70.728C137.419 70.728 138.787 70.44 139.891 69.864C141.043 69.288 141.931 68.472 142.555 67.416C143.179 66.36 143.491 65.16 143.491 63.816C143.491 62.376 143.203 61.2 142.627 60.288C142.099 59.376 141.283 58.728 140.179 58.344C139.075 57.912 137.683 57.696 136.003 57.696C135.379 57.696 134.779 57.72 134.203 57.768C133.675 57.768 133.075 57.816 132.403 57.912V50.64C132.787 50.688 133.171 50.736 133.555 50.784C133.987 50.784 134.419 50.784 134.851 50.784C137.539 50.784 139.459 50.256 140.611 49.2C141.811 48.096 142.411 46.344 142.411 43.944C142.411 41.976 141.811 40.464 140.611 39.408C139.459 38.304 137.803 37.752 135.643 37.752C133.339 37.752 131.515 38.328 130.171 39.48C128.827 40.584 127.891 42.288 127.363 44.592L118.507 41.28C119.083 38.88 120.187 36.816 121.819 35.088C123.499 33.36 125.563 32.04 128.011 31.128C130.459 30.168 133.171 29.688 136.147 29.688C139.699 29.688 142.651 30.24 145.003 31.344C147.403 32.448 149.203 33.96 150.403 35.88C151.651 37.8 152.275 40.008 152.275 42.504C152.275 44.472 151.963 46.152 151.339 47.544C150.763 48.888 149.995 50.04 149.035 51C148.123 51.912 147.163 52.608 146.155 53.088C145.147 53.568 144.211 53.856 143.347 53.952V54.168C144.451 54.216 145.579 54.456 146.731 54.888C147.883 55.272 148.939 55.872 149.899 56.688C150.907 57.504 151.723 58.56 152.347 59.856C152.971 61.104 153.283 62.592 153.283 64.32C153.283 67.2 152.515 69.744 150.979 71.952C149.491 74.112 147.451 75.792 144.859 76.992C142.267 78.144 139.291 78.72 135.931 78.72Z" fill="#292E3D"/>
<rect x="58" y="97" width="7" height="28" fill="#F9995D"/>
<path d="M85.184 103.16C86.256 103.16 87.184 103.36 87.968 103.76C88.768 104.144 89.392 104.696 89.84 105.416C90.288 106.136 90.512 106.992 90.512 107.984C90.512 108.976 90.288 109.832 89.84 110.552C89.392 111.272 88.768 111.832 87.968 112.232C87.184 112.616 86.256 112.808 85.184 112.808H81.512V119H79.592V103.16H85.184ZM84.896 111.008C86.144 111.008 87.056 110.752 87.632 110.24C88.208 109.712 88.496 108.96 88.496 107.984C88.496 106.992 88.208 106.24 87.632 105.728C87.056 105.216 86.144 104.96 84.896 104.96H81.512V111.008H84.896ZM93.8804 119V107H95.4404L95.7044 108.968C96.0404 108.232 96.5284 107.68 97.1684 107.312C97.8244 106.944 98.6164 106.76 99.5444 106.76C99.7524 106.76 99.9764 106.776 100.216 106.808C100.472 106.84 100.688 106.904 100.864 107L100.528 108.752C100.352 108.688 100.16 108.64 99.9524 108.608C99.7444 108.576 99.4484 108.56 99.0644 108.56C98.5684 108.56 98.0644 108.704 97.5524 108.992C97.0564 109.28 96.6404 109.72 96.3044 110.312C95.9684 110.888 95.8004 111.624 95.8004 112.52V119H93.8804ZM108.27 106.76C109.406 106.76 110.406 107.008 111.27 107.504C112.15 108 112.838 108.72 113.334 109.664C113.83 110.592 114.078 111.704 114.078 113C114.078 114.296 113.83 115.416 113.334 116.36C112.838 117.288 112.15 118 111.27 118.496C110.406 118.992 109.406 119.24 108.27 119.24C107.15 119.24 106.15 118.992 105.27 118.496C104.39 118 103.702 117.288 103.206 116.36C102.71 115.416 102.462 114.296 102.462 113C102.462 111.704 102.71 110.592 103.206 109.664C103.702 108.72 104.39 108 105.27 107.504C106.15 107.008 107.15 106.76 108.27 106.76ZM108.27 108.416C107.454 108.416 106.758 108.6 106.182 108.968C105.606 109.336 105.158 109.864 104.838 110.552C104.534 111.224 104.382 112.04 104.382 113C104.382 113.944 104.534 114.76 104.838 115.448C105.158 116.136 105.606 116.664 106.182 117.032C106.758 117.4 107.454 117.584 108.27 117.584C109.086 117.584 109.782 117.4 110.358 117.032C110.934 116.664 111.374 116.136 111.678 115.448C111.998 114.76 112.158 113.944 112.158 113C112.158 112.04 111.998 111.224 111.678 110.552C111.374 109.864 110.934 109.336 110.358 108.968C109.782 108.6 109.086 108.416 108.27 108.416ZM118.653 104.696C118.221 104.696 117.869 104.568 117.597 104.312C117.341 104.04 117.213 103.688 117.213 103.256C117.213 102.824 117.341 102.48 117.597 102.224C117.869 101.952 118.221 101.816 118.653 101.816C119.085 101.816 119.429 101.952 119.685 102.224C119.957 102.48 120.093 102.824 120.093 103.256C120.093 103.688 119.957 104.04 119.685 104.312C119.429 104.568 119.085 104.696 118.653 104.696ZM119.613 107V120.224C119.613 121.216 119.421 122 119.037 122.576C118.653 123.152 118.181 123.56 117.621 123.8C117.061 124.04 116.509 124.16 115.965 124.16C115.469 124.16 115.013 124.08 114.597 123.92C114.181 123.776 113.837 123.592 113.565 123.368L113.973 121.544C114.197 121.752 114.477 121.928 114.813 122.072C115.149 122.216 115.525 122.288 115.941 122.288C116.453 122.288 116.869 122.12 117.189 121.784C117.525 121.448 117.693 120.864 117.693 120.032V107H119.613ZM129.084 119.24C127.948 119.24 126.932 118.992 126.036 118.496C125.156 118 124.468 117.288 123.972 116.36C123.476 115.416 123.228 114.296 123.228 113C123.228 111.704 123.476 110.592 123.972 109.664C124.468 108.72 125.148 108 126.012 107.504C126.876 107.008 127.86 106.76 128.964 106.76C130.084 106.76 131.036 107 131.82 107.48C132.62 107.96 133.228 108.616 133.644 109.448C134.06 110.264 134.268 111.184 134.268 112.208C134.268 112.48 134.26 112.728 134.244 112.952C134.228 113.176 134.204 113.376 134.172 113.552H124.476V111.848H133.332L132.348 112.04C132.348 110.888 132.028 110 131.388 109.376C130.764 108.752 129.94 108.44 128.916 108.44C128.132 108.44 127.452 108.624 126.876 108.992C126.316 109.344 125.876 109.864 125.556 110.552C125.252 111.224 125.1 112.04 125.1 113C125.1 113.944 125.26 114.76 125.58 115.448C125.9 116.136 126.348 116.664 126.924 117.032C127.516 117.384 128.22 117.56 129.036 117.56C129.916 117.56 130.628 117.392 131.172 117.056C131.732 116.72 132.18 116.264 132.516 115.688L134.028 116.576C133.724 117.12 133.332 117.592 132.852 117.992C132.388 118.392 131.836 118.704 131.196 118.928C130.572 119.136 129.868 119.24 129.084 119.24ZM142.888 106.76C143.72 106.76 144.448 106.888 145.072 107.144C145.712 107.4 146.264 107.768 146.728 108.248C147.192 108.728 147.568 109.296 147.856 109.952L146.032 110.816C145.776 110.048 145.384 109.464 144.856 109.064C144.344 108.648 143.672 108.44 142.84 108.44C142.04 108.44 141.352 108.624 140.776 108.992C140.2 109.344 139.76 109.864 139.456 110.552C139.152 111.224 139 112.04 139 113C139 113.944 139.152 114.76 139.456 115.448C139.76 116.136 140.2 116.664 140.776 117.032C141.352 117.384 142.04 117.56 142.84 117.56C143.464 117.56 144 117.464 144.448 117.272C144.912 117.08 145.288 116.8 145.576 116.432C145.88 116.064 146.088 115.616 146.2 115.088L147.976 115.712C147.704 116.448 147.328 117.08 146.848 117.608C146.384 118.136 145.816 118.544 145.144 118.832C144.488 119.104 143.736 119.24 142.888 119.24C141.768 119.24 140.768 118.992 139.888 118.496C139.008 118 138.32 117.288 137.824 116.36C137.328 115.416 137.08 114.296 137.08 113C137.08 111.704 137.328 110.592 137.824 109.664C138.32 108.72 139.008 108 139.888 107.504C140.768 107.008 141.768 106.76 142.888 106.76ZM154.181 103.592V115.688C154.181 116.28 154.349 116.72 154.685 117.008C155.021 117.296 155.453 117.44 155.981 117.44C156.445 117.44 156.845 117.36 157.181 117.2C157.517 117.04 157.821 116.824 158.093 116.552L158.765 118.16C158.397 118.496 157.957 118.76 157.445 118.952C156.949 119.144 156.373 119.24 155.717 119.24C155.109 119.24 154.541 119.136 154.013 118.928C153.485 118.704 153.061 118.36 152.741 117.896C152.437 117.416 152.277 116.792 152.261 116.024V104.12L154.181 103.592ZM158.549 107V108.656H149.861V107H158.549ZM165.724 119.24C164.556 119.24 163.476 118.992 162.484 118.496C161.508 118 160.756 117.296 160.228 116.384L161.86 115.208C162.212 115.944 162.724 116.52 163.396 116.936C164.084 117.352 164.908 117.56 165.868 117.56C166.716 117.56 167.38 117.4 167.86 117.08C168.34 116.744 168.58 116.312 168.58 115.784C168.58 115.448 168.468 115.144 168.244 114.872C168.036 114.584 167.628 114.376 167.02 114.248L164.14 113.648C162.972 113.408 162.132 113.008 161.62 112.448C161.124 111.888 160.876 111.192 160.876 110.36C160.876 109.704 161.06 109.104 161.428 108.56C161.812 108.016 162.348 107.584 163.036 107.264C163.74 106.928 164.564 106.76 165.508 106.76C166.692 106.76 167.692 106.992 168.508 107.456C169.324 107.92 169.932 108.576 170.332 109.424L168.724 110.48C168.452 109.776 168.012 109.264 167.404 108.944C166.796 108.608 166.164 108.44 165.508 108.44C164.932 108.44 164.436 108.52 164.02 108.68C163.62 108.84 163.308 109.064 163.084 109.352C162.876 109.624 162.772 109.936 162.772 110.288C162.772 110.64 162.892 110.968 163.132 111.272C163.372 111.56 163.82 111.768 164.476 111.896L167.476 112.52C168.596 112.744 169.38 113.112 169.828 113.624C170.276 114.136 170.5 114.76 170.5 115.496C170.5 116.248 170.3 116.912 169.9 117.488C169.5 118.048 168.94 118.48 168.22 118.784C167.5 119.088 166.668 119.24 165.724 119.24ZM195.368 114.944C195.032 115.84 194.552 116.616 193.928 117.272C193.304 117.912 192.568 118.4 191.72 118.736C190.888 119.072 189.976 119.24 188.984 119.24C187.48 119.24 186.176 118.912 185.072 118.256C183.984 117.584 183.136 116.64 182.528 115.424C181.936 114.208 181.64 112.76 181.64 111.08C181.64 109.4 181.936 107.952 182.528 106.736C183.136 105.52 183.984 104.584 185.072 103.928C186.176 103.256 187.464 102.92 188.936 102.92C189.96 102.92 190.872 103.064 191.672 103.352C192.472 103.624 193.152 104.04 193.712 104.6C194.288 105.144 194.744 105.816 195.08 106.616L193.184 107.504C192.832 106.592 192.32 105.904 191.648 105.44C190.992 104.96 190.136 104.72 189.08 104.72C188.008 104.72 187.064 104.976 186.248 105.488C185.432 105.984 184.792 106.704 184.328 107.648C183.88 108.592 183.656 109.736 183.656 111.08C183.656 112.408 183.872 113.552 184.304 114.512C184.736 115.456 185.352 116.184 186.152 116.696C186.952 117.192 187.896 117.44 188.984 117.44C190.04 117.44 190.96 117.176 191.744 116.648C192.528 116.104 193.096 115.296 193.448 114.224L195.368 114.944ZM203.661 106.76C204.797 106.76 205.797 107.008 206.661 107.504C207.541 108 208.229 108.72 208.725 109.664C209.221 110.592 209.469 111.704 209.469 113C209.469 114.296 209.221 115.416 208.725 116.36C208.229 117.288 207.541 118 206.661 118.496C205.797 118.992 204.797 119.24 203.661 119.24C202.541 119.24 201.541 118.992 200.661 118.496C199.781 118 199.093 117.288 198.597 116.36C198.101 115.416 197.853 114.296 197.853 113C197.853 111.704 198.101 110.592 198.597 109.664C199.093 108.72 199.781 108 200.661 107.504C201.541 107.008 202.541 106.76 203.661 106.76ZM203.661 108.416C202.845 108.416 202.149 108.6 201.573 108.968C200.997 109.336 200.549 109.864 200.229 110.552C199.925 111.224 199.773 112.04 199.773 113C199.773 113.944 199.925 114.76 200.229 115.448C200.549 116.136 200.997 116.664 201.573 117.032C202.149 117.4 202.845 117.584 203.661 117.584C204.477 117.584 205.173 117.4 205.749 117.032C206.325 116.664 206.765 116.136 207.069 115.448C207.389 114.76 207.549 113.944 207.549 113C207.549 112.04 207.389 111.224 207.069 110.552C206.765 109.864 206.325 109.336 205.749 108.968C205.173 108.6 204.477 108.416 203.661 108.416ZM213.084 119V107H214.764L214.884 108.872C215.316 108.136 215.876 107.6 216.564 107.264C217.268 106.928 217.988 106.76 218.724 106.76C219.572 106.76 220.372 106.952 221.124 107.336C221.876 107.72 222.452 108.312 222.852 109.112C223.108 108.568 223.468 108.128 223.932 107.792C224.396 107.44 224.9 107.184 225.444 107.024C226.004 106.848 226.532 106.76 227.028 106.76C227.796 106.76 228.524 106.92 229.212 107.24C229.916 107.56 230.492 108.056 230.94 108.728C231.388 109.4 231.612 110.264 231.612 111.32V119H229.692V111.512C229.692 110.424 229.42 109.64 228.876 109.16C228.332 108.68 227.66 108.44 226.86 108.44C226.236 108.44 225.652 108.592 225.108 108.896C224.564 109.2 224.124 109.648 223.788 110.24C223.468 110.832 223.308 111.56 223.308 112.424V119H221.388V111.512C221.388 110.424 221.116 109.64 220.572 109.16C220.028 108.68 219.356 108.44 218.556 108.44C218.028 108.44 217.484 108.584 216.924 108.872C216.38 109.144 215.924 109.584 215.556 110.192C215.188 110.8 215.004 111.6 215.004 112.592V119H213.084ZM235.959 124.04V107H237.639L237.807 109.928L237.543 109.592C237.751 109.032 238.063 108.544 238.479 108.128C238.895 107.696 239.399 107.36 239.991 107.12C240.583 106.88 241.223 106.76 241.911 106.76C242.887 106.76 243.783 107.008 244.599 107.504C245.431 108 246.095 108.712 246.591 109.64C247.087 110.568 247.335 111.688 247.335 113C247.335 114.296 247.079 115.416 246.567 116.36C246.071 117.288 245.407 118 244.575 118.496C243.743 118.992 242.831 119.24 241.839 119.24C240.847 119.24 239.975 119 239.223 118.52C238.487 118.024 237.959 117.4 237.639 116.648L237.879 116.288V124.04H235.959ZM241.647 117.56C242.831 117.56 243.751 117.144 244.407 116.312C245.079 115.48 245.415 114.376 245.415 113C245.415 111.624 245.087 110.52 244.431 109.688C243.791 108.856 242.887 108.44 241.719 108.44C240.951 108.44 240.279 108.632 239.703 109.016C239.127 109.384 238.679 109.912 238.359 110.6C238.039 111.272 237.879 112.072 237.879 113C237.879 113.912 238.031 114.712 238.335 115.4C238.655 116.088 239.095 116.624 239.655 117.008C240.231 117.376 240.895 117.56 241.647 117.56ZM252.829 101.48V115.952C252.829 116.56 252.941 116.984 253.165 117.224C253.389 117.448 253.749 117.56 254.245 117.56C254.565 117.56 254.829 117.536 255.037 117.488C255.245 117.44 255.525 117.352 255.877 117.224L255.565 118.904C255.309 119.016 255.029 119.096 254.725 119.144C254.421 119.208 254.109 119.24 253.789 119.24C252.813 119.24 252.085 118.976 251.605 118.448C251.141 117.92 250.909 117.112 250.909 116.024V101.48H252.829ZM263.357 119.24C262.221 119.24 261.205 118.992 260.309 118.496C259.429 118 258.741 117.288 258.245 116.36C257.749 115.416 257.501 114.296 257.501 113C257.501 111.704 257.749 110.592 258.245 109.664C258.741 108.72 259.421 108 260.285 107.504C261.149 107.008 262.133 106.76 263.237 106.76C264.357 106.76 265.309 107 266.093 107.48C266.893 107.96 267.501 108.616 267.917 109.448C268.333 110.264 268.541 111.184 268.541 112.208C268.541 112.48 268.533 112.728 268.517 112.952C268.501 113.176 268.477 113.376 268.445 113.552H258.749V111.848H267.605L266.621 112.04C266.621 110.888 266.301 110 265.661 109.376C265.037 108.752 264.213 108.44 263.189 108.44C262.405 108.44 261.725 108.624 261.149 108.992C260.589 109.344 260.149 109.864 259.829 110.552C259.525 111.224 259.373 112.04 259.373 113C259.373 113.944 259.533 114.76 259.853 115.448C260.173 116.136 260.621 116.664 261.197 117.032C261.789 117.384 262.493 117.56 263.309 117.56C264.189 117.56 264.901 117.392 265.445 117.056C266.005 116.72 266.453 116.264 266.789 115.688L268.301 116.576C267.997 117.12 267.605 117.592 267.125 117.992C266.661 118.392 266.109 118.704 265.469 118.928C264.845 119.136 264.141 119.24 263.357 119.24ZM274.673 103.592V115.688C274.673 116.28 274.841 116.72 275.177 117.008C275.513 117.296 275.945 117.44 276.473 117.44C276.937 117.44 277.337 117.36 277.673 117.2C278.009 117.04 278.313 116.824 278.585 116.552L279.257 118.16C278.889 118.496 278.449 118.76 277.937 118.952C277.441 119.144 276.865 119.24 276.209 119.24C275.601 119.24 275.033 119.136 274.505 118.928C273.977 118.704 273.553 118.36 273.233 117.896C272.929 117.416 272.769 116.792 272.753 116.024V104.12L274.673 103.592ZM279.041 107V108.656H270.353V107H279.041ZM286.912 119.24C285.776 119.24 284.76 118.992 283.864 118.496C282.984 118 282.296 117.288 281.8 116.36C281.304 115.416 281.056 114.296 281.056 113C281.056 111.704 281.304 110.592 281.8 109.664C282.296 108.72 282.976 108 283.84 107.504C284.704 107.008 285.688 106.76 286.792 106.76C287.912 106.76 288.864 107 289.648 107.48C290.448 107.96 291.056 108.616 291.472 109.448C291.888 110.264 292.096 111.184 292.096 112.208C292.096 112.48 292.088 112.728 292.072 112.952C292.056 113.176 292.032 113.376 292 113.552H282.304V111.848H291.16L290.176 112.04C290.176 110.888 289.856 110 289.216 109.376C288.592 108.752 287.768 108.44 286.744 108.44C285.96 108.44 285.28 108.624 284.704 108.992C284.144 109.344 283.704 109.864 283.384 110.552C283.08 111.224 282.928 112.04 282.928 113C282.928 113.944 283.088 114.76 283.408 115.448C283.728 116.136 284.176 116.664 284.752 117.032C285.344 117.384 286.048 117.56 286.864 117.56C287.744 117.56 288.456 117.392 289 117.056C289.56 116.72 290.008 116.264 290.344 115.688L291.856 116.576C291.552 117.12 291.16 117.592 290.68 117.992C290.216 118.392 289.664 118.704 289.024 118.928C288.4 119.136 287.696 119.24 286.912 119.24ZM300.428 119.24C299.436 119.24 298.524 118.992 297.692 118.496C296.86 118 296.196 117.288 295.7 116.36C295.204 115.416 294.956 114.296 294.956 113C294.956 111.672 295.22 110.544 295.748 109.616C296.276 108.688 296.972 107.984 297.836 107.504C298.7 107.008 299.628 106.76 300.62 106.76C301.612 106.76 302.468 107.016 303.188 107.528C303.924 108.04 304.412 108.72 304.652 109.568L304.412 109.736V101.48H306.332V119H304.652L304.484 116.096L304.748 115.952C304.636 116.656 304.364 117.256 303.932 117.752C303.516 118.232 302.996 118.6 302.372 118.856C301.764 119.112 301.116 119.24 300.428 119.24ZM300.62 117.56C301.388 117.56 302.052 117.368 302.612 116.984C303.188 116.6 303.628 116.056 303.932 115.352C304.252 114.632 304.412 113.792 304.412 112.832C304.412 111.92 304.252 111.136 303.932 110.48C303.628 109.824 303.196 109.32 302.636 108.968C302.092 108.616 301.452 108.44 300.716 108.44C299.5 108.44 298.556 108.856 297.884 109.688C297.212 110.52 296.876 111.624 296.876 113C296.876 114.376 297.204 115.48 297.86 116.312C298.516 117.144 299.436 117.56 300.62 117.56Z" fill="#667299"/>
<rect x="12.5" y="0.5" width="360" height="154" rx="3.5" stroke="white"/>
</g>
<defs>
<filter id="filter0_dd_32_55" x="0" y="0" width="385" height="179" filterUnits="userSpaceOnUse" color-interpolation-filters="sRGB">
<feFlood flood-opacity="0" result="BackgroundImageFix"/>
<feColorMatrix in="SourceAlpha" type="matrix" values="0 0 0 0 0 0 0 0 0 0 0 0 0 0 0 0 0 0 127 0" result="hardAlpha"/>
<feMorphology radius="2" operator="erode" in="SourceAlpha" result="effect1_dropShadow_32_55"/>
<feOffset dy="4"/>
<feGaussianBlur stdDeviation="3"/>
<feColorMatrix type="matrix" values="0 0 0 0 0.0666667 0 0 0 0 0.0941176 0 0 0 0 0.152941 0 0 0 0.05 0"/>
<feBlend mode="normal" in2="BackgroundImageFix" result="effect1_dropShadow_32_55"/>
<feColorMatrix in="SourceAlpha" type="matrix" values="0 0 0 0 0 0 0 0 0 0 0 0 0 0 0 0 0 0 127 0" result="hardAlpha"/>
<feMorphology radius="4" operator="erode" in="SourceAlpha" result="effect2_dropShadow_32_55"/>
<feOffset dy="12"/>
<feGaussianBlur stdDeviation="8"/>
<feColorMatrix type="matrix" values="0 0 0 0 0.0666667 0 0 0 0 0.0941176 0 0 0 0 0.152941 0 0 0 0.1 0"/>
<feBlend mode="normal" in2="effect1_dropShadow_32_55" result="effect2_dropShadow_32_55"/>
<feBlend mode="normal" in="SourceGraphic" in2="effect2_dropShadow_32_55" result="shape"/>
</filter>
</defs>
</svg>
