<svg width="341" height="251" viewBox="0 0 341 251" fill="none" xmlns="http://www.w3.org/2000/svg">
<g filter="url(#filter0_d_27_101)">
<rect x="35" y="35" width="271" height="181" rx="4" fill="#2947A9"/>
<g clip-path="url(#clip0_27_101)">
<rect x="150.5" y="89.6666" width="23.3333" height="23.3333" fill="#7595FD"/>
<path d="M183 78C181.895 78.0009 180.836 78.4402 180.055 79.2214C179.273 80.0026 178.834 81.0619 178.833 82.1667C178.833 82.7617 178.963 83.3267 179.19 83.8417L175.932 87.5067C174.825 86.7427 173.512 86.3334 172.167 86.3334C170.933 86.3334 169.793 86.6934 168.802 87.2767L165.012 83.4884L164.973 83.5267C165.3 82.8634 165.5 82.125 165.5 81.3334C165.5 80.3445 165.207 79.3778 164.657 78.5555C164.108 77.7333 163.327 77.0924 162.413 76.714C161.5 76.3355 160.494 76.2365 159.525 76.4294C158.555 76.6224 157.664 77.0986 156.964 77.7978C156.265 78.4971 155.789 79.388 155.596 80.3579C155.403 81.3278 155.502 82.3332 155.881 83.2468C156.259 84.1604 156.9 84.9413 157.722 85.4907C158.544 86.0401 159.511 86.3334 160.5 86.3334C161.292 86.3334 162.028 86.1334 162.693 85.8067L162.655 85.845L166.445 89.6334C165.833 90.6501 165.506 91.8132 165.5 93C165.5 94.6617 166.133 96.165 167.142 97.335L162.847 101.628C162.365 101.436 161.852 101.336 161.333 101.333C159.037 101.333 157.167 103.202 157.167 105.5C157.167 107.798 159.037 109.667 161.333 109.667C163.63 109.667 165.5 107.798 165.5 105.5C165.5 104.965 165.39 104.457 165.205 103.985L169.935 99.255C170.637 99.505 171.38 99.6667 172.167 99.6667C175.843 99.6667 178.833 96.6767 178.833 93C178.833 91.94 178.562 90.9517 178.12 90.06L181.648 86.0884C182.075 86.235 182.525 86.3334 183 86.3334C185.298 86.3334 187.167 84.465 187.167 82.1667C187.167 79.8684 185.298 78 183 78ZM172.167 96.3334C170.328 96.3334 168.833 94.8384 168.833 93C168.833 91.1617 170.328 89.6667 172.167 89.6667C174.005 89.6667 175.5 91.1617 175.5 93C175.5 94.8384 174.005 96.3334 172.167 96.3334Z" fill="white"/>
</g>
<rect x="140.5" y="133" width="60" height="2" fill="#E0E3EB"/>
<path d="M123.235 159.8C124.729 159.8 125.902 160.16 126.755 160.88C127.609 161.6 128.035 162.567 128.035 163.78C128.035 165.073 127.609 166.067 126.755 166.76C125.902 167.44 124.735 167.78 123.255 167.78L122.975 167.94H120.135V173H117.415V159.8H123.235ZM122.915 165.84C123.689 165.84 124.262 165.687 124.635 165.38C125.022 165.06 125.215 164.573 125.215 163.92C125.215 163.267 125.022 162.787 124.635 162.48C124.262 162.16 123.689 162 122.915 162H120.135V165.84H122.915ZM124.535 166.42L128.815 173H125.715L122.175 167.22L124.535 166.42ZM135.174 173.2C134.12 173.2 133.2 172.993 132.414 172.58C131.64 172.167 131.04 171.573 130.614 170.8C130.187 170.027 129.974 169.093 129.974 168C129.974 166.907 130.187 165.973 130.614 165.2C131.04 164.427 131.634 163.833 132.394 163.42C133.167 163.007 134.047 162.8 135.034 162.8C136.047 162.8 136.907 163.007 137.614 163.42C138.32 163.82 138.86 164.373 139.234 165.08C139.607 165.773 139.794 166.567 139.794 167.46C139.794 167.727 139.787 167.98 139.774 168.22C139.76 168.46 139.74 168.673 139.714 168.86H131.734V166.96H138.514L137.194 167.44C137.194 166.6 137 165.953 136.614 165.5C136.24 165.047 135.707 164.82 135.014 164.82C134.507 164.82 134.067 164.94 133.694 165.18C133.334 165.42 133.06 165.78 132.874 166.26C132.687 166.727 132.594 167.32 132.594 168.04C132.594 168.747 132.694 169.333 132.894 169.8C133.107 170.253 133.4 170.593 133.774 170.82C134.16 171.047 134.62 171.16 135.154 171.16C135.74 171.16 136.214 171.047 136.574 170.82C136.934 170.593 137.214 170.28 137.414 169.88L139.594 170.72C139.38 171.24 139.054 171.687 138.614 172.06C138.187 172.433 137.674 172.72 137.074 172.92C136.487 173.107 135.854 173.2 135.174 173.2ZM142.116 173V163H144.576L144.736 166L144.396 165.68C144.556 165.027 144.809 164.487 145.156 164.06C145.502 163.633 145.922 163.32 146.416 163.12C146.922 162.907 147.476 162.8 148.076 162.8C148.769 162.8 149.382 162.933 149.916 163.2C150.462 163.467 150.889 163.873 151.196 164.42C151.516 164.953 151.676 165.627 151.676 166.44V173H148.936V167.22C148.936 166.367 148.769 165.78 148.436 165.46C148.102 165.127 147.669 164.96 147.136 164.96C146.762 164.96 146.396 165.053 146.036 165.24C145.689 165.413 145.402 165.7 145.176 166.1C144.962 166.5 144.856 167.033 144.856 167.7V173H142.116ZM159.059 162.8C160.072 162.8 160.959 163.007 161.719 163.42C162.492 163.833 163.092 164.427 163.519 165.2C163.959 165.973 164.179 166.907 164.179 168C164.179 169.08 163.959 170.013 163.519 170.8C163.092 171.573 162.492 172.167 161.719 172.58C160.959 172.993 160.072 173.2 159.059 173.2C158.059 173.2 157.172 172.993 156.399 172.58C155.625 172.167 155.019 171.573 154.579 170.8C154.152 170.013 153.939 169.08 153.939 168C153.939 166.907 154.152 165.973 154.579 165.2C155.019 164.427 155.625 163.833 156.399 163.42C157.172 163.007 158.059 162.8 159.059 162.8ZM159.059 164.84C158.552 164.84 158.119 164.96 157.759 165.2C157.412 165.427 157.145 165.773 156.959 166.24C156.772 166.707 156.679 167.293 156.679 168C156.679 168.707 156.772 169.293 156.959 169.76C157.145 170.227 157.412 170.58 157.759 170.82C158.119 171.047 158.552 171.16 159.059 171.16C159.552 171.16 159.972 171.047 160.319 170.82C160.679 170.58 160.952 170.227 161.139 169.76C161.325 169.293 161.419 168.707 161.419 168C161.419 167.293 161.325 166.707 161.139 166.24C160.952 165.773 160.679 165.427 160.319 165.2C159.972 164.96 159.552 164.84 159.059 164.84ZM172.914 163H175.754L171.954 173H168.794L164.994 163H167.914L170.394 170.9L172.914 163ZM182.757 166.62C182.757 166.047 182.591 165.6 182.257 165.28C181.937 164.96 181.511 164.8 180.977 164.8C180.484 164.8 180.051 164.927 179.677 165.18C179.304 165.433 179.031 165.853 178.857 166.44L176.517 165.72C176.744 164.84 177.237 164.133 177.997 163.6C178.771 163.067 179.804 162.8 181.097 162.8C181.977 162.8 182.744 162.94 183.397 163.22C184.051 163.487 184.557 163.893 184.917 164.44C185.291 164.987 185.477 165.673 185.477 166.5V170.56C185.477 171.067 185.717 171.32 186.197 171.32C186.424 171.32 186.637 171.287 186.837 171.22L186.677 172.92C186.331 173.093 185.897 173.18 185.377 173.18C184.911 173.18 184.491 173.1 184.117 172.94C183.744 172.78 183.451 172.54 183.237 172.22C183.024 171.887 182.917 171.473 182.917 170.98V170.9L183.397 170.82C183.317 171.327 183.097 171.76 182.737 172.12C182.377 172.467 181.937 172.733 181.417 172.92C180.911 173.107 180.384 173.2 179.837 173.2C179.157 173.2 178.571 173.1 178.077 172.9C177.584 172.687 177.204 172.38 176.937 171.98C176.671 171.58 176.537 171.087 176.537 170.5C176.537 169.753 176.777 169.147 177.257 168.68C177.737 168.2 178.424 167.873 179.317 167.7L183.077 166.94L183.057 168.64L180.657 169.12C180.204 169.213 179.857 169.34 179.617 169.5C179.391 169.647 179.277 169.893 179.277 170.24C179.277 170.573 179.397 170.827 179.637 171C179.891 171.173 180.191 171.26 180.537 171.26C180.817 171.26 181.091 171.227 181.357 171.16C181.624 171.093 181.864 170.987 182.077 170.84C182.291 170.693 182.457 170.493 182.577 170.24C182.697 169.987 182.757 169.68 182.757 169.32V166.62ZM191.691 159.94V169.74C191.691 170.22 191.811 170.573 192.051 170.8C192.304 171.013 192.644 171.12 193.071 171.12C193.404 171.12 193.698 171.073 193.951 170.98C194.204 170.873 194.431 170.733 194.631 170.56L195.071 172.38C194.751 172.633 194.351 172.833 193.871 172.98C193.391 173.127 192.884 173.2 192.351 173.2C191.684 173.2 191.091 173.1 190.571 172.9C190.064 172.7 189.664 172.38 189.371 171.94C189.091 171.5 188.951 170.913 188.951 170.18V160.7L191.691 159.94ZM194.891 163V165.04H187.111V163H194.891ZM198.125 161.56C197.551 161.56 197.125 161.44 196.845 161.2C196.565 160.947 196.425 160.58 196.425 160.1C196.425 159.607 196.565 159.24 196.845 159C197.125 158.747 197.551 158.62 198.125 158.62C198.698 158.62 199.125 158.747 199.405 159C199.685 159.24 199.825 159.607 199.825 160.1C199.825 160.58 199.685 160.947 199.405 161.2C199.125 161.44 198.698 161.56 198.125 161.56ZM199.485 163V173H196.745V163H199.485ZM206.949 162.8C207.963 162.8 208.849 163.007 209.609 163.42C210.383 163.833 210.983 164.427 211.409 165.2C211.849 165.973 212.069 166.907 212.069 168C212.069 169.08 211.849 170.013 211.409 170.8C210.983 171.573 210.383 172.167 209.609 172.58C208.849 172.993 207.963 173.2 206.949 173.2C205.949 173.2 205.063 172.993 204.289 172.58C203.516 172.167 202.909 171.573 202.469 170.8C202.043 170.013 201.829 169.08 201.829 168C201.829 166.907 202.043 165.973 202.469 165.2C202.909 164.427 203.516 163.833 204.289 163.42C205.063 163.007 205.949 162.8 206.949 162.8ZM206.949 164.84C206.443 164.84 206.009 164.96 205.649 165.2C205.303 165.427 205.036 165.773 204.849 166.24C204.663 166.707 204.569 167.293 204.569 168C204.569 168.707 204.663 169.293 204.849 169.76C205.036 170.227 205.303 170.58 205.649 170.82C206.009 171.047 206.443 171.16 206.949 171.16C207.443 171.16 207.863 171.047 208.209 170.82C208.569 170.58 208.843 170.227 209.029 169.76C209.216 169.293 209.309 168.707 209.309 168C209.309 167.293 209.216 166.707 209.029 166.24C208.843 165.773 208.569 165.427 208.209 165.2C207.863 164.96 207.443 164.84 206.949 164.84ZM214.362 173V163H216.822L216.982 166L216.642 165.68C216.802 165.027 217.055 164.487 217.402 164.06C217.749 163.633 218.169 163.32 218.662 163.12C219.169 162.907 219.722 162.8 220.322 162.8C221.015 162.8 221.629 162.933 222.162 163.2C222.709 163.467 223.135 163.873 223.442 164.42C223.762 164.953 223.922 165.627 223.922 166.44V173H221.182V167.22C221.182 166.367 221.015 165.78 220.682 165.46C220.349 165.127 219.915 164.96 219.382 164.96C219.009 164.96 218.642 165.053 218.282 165.24C217.935 165.413 217.649 165.7 217.422 166.1C217.209 166.5 217.102 167.033 217.102 167.7V173H214.362Z" fill="white"/>
</g>
<defs>
<filter id="filter0_d_27_101" x="0" y="0" width="341" height="251" filterUnits="userSpaceOnUse" color-interpolation-filters="sRGB">
<feFlood flood-opacity="0" result="BackgroundImageFix"/>
<feColorMatrix in="SourceAlpha" type="matrix" values="0 0 0 0 0 0 0 0 0 0 0 0 0 0 0 0 0 0 127 0" result="hardAlpha"/>
<feMorphology radius="2" operator="erode" in="SourceAlpha" result="effect1_dropShadow_27_101"/>
<feOffset/>
<feGaussianBlur stdDeviation="18.5"/>
<feColorMatrix type="matrix" values="0 0 0 0 0.0666667 0 0 0 0 0.0941176 0 0 0 0 0.152941 0 0 0 0.05 0"/>
<feBlend mode="normal" in2="BackgroundImageFix" result="effect1_dropShadow_27_101"/>
<feBlend mode="normal" in="SourceGraphic" in2="effect1_dropShadow_27_101" result="shape"/>
</filter>
<clipPath id="clip0_27_101">
<rect width="40" height="40" fill="white" transform="translate(150.5 73)"/>
</clipPath>
</defs>
</svg>
