<svg width="341" height="251" viewBox="0 0 341 251" fill="none" xmlns="http://www.w3.org/2000/svg">
<g filter="url(#filter0_d_27_138)">
<rect x="35" y="35" width="271" height="181" rx="4" fill="#2947A9"/>
<g clip-path="url(#clip0_27_138)">
<rect x="150.5" y="89.6667" width="23.3333" height="23.3333" fill="#7595FD"/>
<path d="M180.5 99.6667H177.167V98.0001H163.833V99.6667H160.5V98.0001H153.833V106.333H187.167V98.0001H180.5V99.6667ZM183.833 86.3334H178.833V83.0001C178.833 81.1667 177.333 79.6667 175.5 79.6667H165.5C163.667 79.6667 162.167 81.1667 162.167 83.0001V86.3334H157.167C155.333 86.3334 153.833 87.8334 153.833 89.6667V96.3334H160.5V93.0001H163.833V96.3334H177.167V93.0001H180.5V96.3334H187.167V89.6667C187.167 87.8334 185.667 86.3334 183.833 86.3334ZM175.5 86.3334H165.5V83.0001H175.5V86.3334Z" fill="white"/>
</g>
<rect x="140.5" y="133" width="60" height="2" fill="#E0E3EB"/>
<path d="M102.181 159.8C103.674 159.8 104.847 160.16 105.701 160.88C106.554 161.6 106.981 162.567 106.981 163.78C106.981 165.073 106.554 166.067 105.701 166.76C104.847 167.44 103.681 167.78 102.201 167.78L101.921 167.94H99.0806V173H96.3606V159.8H102.181ZM101.861 165.84C102.634 165.84 103.207 165.687 103.581 165.38C103.967 165.06 104.161 164.573 104.161 163.92C104.161 163.267 103.967 162.787 103.581 162.48C103.207 162.16 102.634 162 101.861 162H99.0806V165.84H101.861ZM103.481 166.42L107.761 173H104.661L101.121 167.22L103.481 166.42ZM114.119 173.2C113.066 173.2 112.146 172.993 111.359 172.58C110.586 172.167 109.986 171.573 109.559 170.8C109.132 170.027 108.919 169.093 108.919 168C108.919 166.907 109.132 165.973 109.559 165.2C109.986 164.427 110.579 163.833 111.339 163.42C112.112 163.007 112.992 162.8 113.979 162.8C114.992 162.8 115.852 163.007 116.559 163.42C117.266 163.82 117.806 164.373 118.179 165.08C118.552 165.773 118.739 166.567 118.739 167.46C118.739 167.727 118.732 167.98 118.719 168.22C118.706 168.46 118.686 168.673 118.659 168.86H110.679V166.96H117.459L116.139 167.44C116.139 166.6 115.946 165.953 115.559 165.5C115.186 165.047 114.652 164.82 113.959 164.82C113.452 164.82 113.012 164.94 112.639 165.18C112.279 165.42 112.006 165.78 111.819 166.26C111.632 166.727 111.539 167.32 111.539 168.04C111.539 168.747 111.639 169.333 111.839 169.8C112.052 170.253 112.346 170.593 112.719 170.82C113.106 171.047 113.566 171.16 114.099 171.16C114.686 171.16 115.159 171.047 115.519 170.82C115.879 170.593 116.159 170.28 116.359 169.88L118.539 170.72C118.326 171.24 117.999 171.687 117.559 172.06C117.132 172.433 116.619 172.72 116.019 172.92C115.432 173.107 114.799 173.2 114.119 173.2ZM121.061 177.2V163H123.521L123.701 166.18L123.361 165.82C123.481 165.233 123.701 164.713 124.021 164.26C124.354 163.807 124.774 163.453 125.281 163.2C125.788 162.933 126.354 162.8 126.981 162.8C127.794 162.8 128.521 163.007 129.161 163.42C129.801 163.833 130.301 164.427 130.661 165.2C131.034 165.96 131.221 166.887 131.221 167.98C131.221 169.073 131.034 170.013 130.661 170.8C130.288 171.573 129.774 172.167 129.121 172.58C128.481 172.993 127.748 173.2 126.921 173.2C126.041 173.2 125.308 172.953 124.721 172.46C124.148 171.967 123.754 171.347 123.541 170.6L123.801 170.18V177.2H121.061ZM126.121 171.1C126.854 171.1 127.428 170.84 127.841 170.32C128.268 169.787 128.481 169.013 128.481 168C128.481 166.987 128.274 166.22 127.861 165.7C127.461 165.167 126.894 164.9 126.161 164.9C125.694 164.9 125.281 165.027 124.921 165.28C124.574 165.52 124.301 165.873 124.101 166.34C123.901 166.793 123.801 167.347 123.801 168C123.801 168.64 123.894 169.193 124.081 169.66C124.268 170.127 124.534 170.487 124.881 170.74C125.241 170.98 125.654 171.1 126.121 171.1ZM139.242 166.62C139.242 166.047 139.075 165.6 138.742 165.28C138.422 164.96 137.995 164.8 137.462 164.8C136.968 164.8 136.535 164.927 136.162 165.18C135.788 165.433 135.515 165.853 135.342 166.44L133.002 165.72C133.228 164.84 133.722 164.133 134.482 163.6C135.255 163.067 136.288 162.8 137.582 162.8C138.462 162.8 139.228 162.94 139.882 163.22C140.535 163.487 141.042 163.893 141.402 164.44C141.775 164.987 141.962 165.673 141.962 166.5V170.56C141.962 171.067 142.202 171.32 142.682 171.32C142.908 171.32 143.122 171.287 143.322 171.22L143.162 172.92C142.815 173.093 142.382 173.18 141.862 173.18C141.395 173.18 140.975 173.1 140.602 172.94C140.228 172.78 139.935 172.54 139.722 172.22C139.508 171.887 139.402 171.473 139.402 170.98V170.9L139.882 170.82C139.802 171.327 139.582 171.76 139.222 172.12C138.862 172.467 138.422 172.733 137.902 172.92C137.395 173.107 136.868 173.2 136.322 173.2C135.642 173.2 135.055 173.1 134.562 172.9C134.068 172.687 133.688 172.38 133.422 171.98C133.155 171.58 133.022 171.087 133.022 170.5C133.022 169.753 133.262 169.147 133.742 168.68C134.222 168.2 134.908 167.873 135.802 167.7L139.562 166.94L139.542 168.64L137.142 169.12C136.688 169.213 136.342 169.34 136.102 169.5C135.875 169.647 135.762 169.893 135.762 170.24C135.762 170.573 135.882 170.827 136.122 171C136.375 171.173 136.675 171.26 137.022 171.26C137.302 171.26 137.575 171.227 137.842 171.16C138.108 171.093 138.348 170.987 138.562 170.84C138.775 170.693 138.942 170.493 139.062 170.24C139.182 169.987 139.242 169.68 139.242 169.32V166.62ZM146.406 161.56C145.833 161.56 145.406 161.44 145.126 161.2C144.846 160.947 144.706 160.58 144.706 160.1C144.706 159.607 144.846 159.24 145.126 159C145.406 158.747 145.833 158.62 146.406 158.62C146.979 158.62 147.406 158.747 147.686 159C147.966 159.24 148.106 159.607 148.106 160.1C148.106 160.58 147.966 160.947 147.686 161.2C147.406 161.44 146.979 161.56 146.406 161.56ZM147.766 163V173H145.026V163H147.766ZM150.67 173V163H153.05L153.23 164.96C153.497 164.267 153.884 163.733 154.39 163.36C154.91 162.987 155.557 162.8 156.33 162.8C156.557 162.8 156.764 162.82 156.95 162.86C157.137 162.9 157.29 162.953 157.41 163.02L157.09 165.32C156.957 165.267 156.79 165.227 156.59 165.2C156.404 165.173 156.157 165.16 155.85 165.16C155.45 165.16 155.064 165.26 154.69 165.46C154.317 165.647 154.01 165.94 153.77 166.34C153.53 166.727 153.41 167.22 153.41 167.82V173H150.67ZM169.95 159.6C171.15 159.6 172.203 159.807 173.11 160.22C174.017 160.633 174.79 161.247 175.43 162.06L173.89 163.84C173.343 163.147 172.743 162.64 172.09 162.32C171.45 161.987 170.703 161.82 169.85 161.82C169.29 161.82 168.823 161.893 168.45 162.04C168.09 162.187 167.823 162.38 167.65 162.62C167.49 162.86 167.41 163.127 167.41 163.42C167.41 163.78 167.55 164.087 167.83 164.34C168.11 164.58 168.59 164.78 169.27 164.94L171.73 165.5C173.037 165.793 173.97 166.233 174.53 166.82C175.103 167.393 175.39 168.14 175.39 169.06C175.39 169.927 175.163 170.673 174.71 171.3C174.257 171.913 173.623 172.387 172.81 172.72C171.997 173.04 171.063 173.2 170.01 173.2C169.09 173.2 168.243 173.093 167.47 172.88C166.71 172.653 166.03 172.347 165.43 171.96C164.83 171.573 164.33 171.127 163.93 170.62L165.49 168.76C165.797 169.187 166.177 169.567 166.63 169.9C167.083 170.233 167.597 170.5 168.17 170.7C168.757 170.887 169.37 170.98 170.01 170.98C170.557 170.98 171.017 170.92 171.39 170.8C171.777 170.667 172.063 170.487 172.25 170.26C172.45 170.02 172.55 169.733 172.55 169.4C172.55 169.053 172.43 168.76 172.19 168.52C171.963 168.267 171.537 168.073 170.91 167.94L168.23 167.34C167.457 167.153 166.79 166.913 166.23 166.62C165.683 166.313 165.263 165.927 164.97 165.46C164.69 164.98 164.55 164.413 164.55 163.76C164.55 162.973 164.763 162.267 165.19 161.64C165.617 161.013 166.23 160.52 167.03 160.16C167.843 159.787 168.817 159.6 169.95 159.6ZM182.361 173.2C181.308 173.2 180.388 172.993 179.601 172.58C178.828 172.167 178.228 171.573 177.801 170.8C177.375 170.027 177.161 169.093 177.161 168C177.161 166.907 177.375 165.973 177.801 165.2C178.228 164.427 178.821 163.833 179.581 163.42C180.355 163.007 181.235 162.8 182.221 162.8C183.235 162.8 184.095 163.007 184.801 163.42C185.508 163.82 186.048 164.373 186.421 165.08C186.795 165.773 186.981 166.567 186.981 167.46C186.981 167.727 186.975 167.98 186.961 168.22C186.948 168.46 186.928 168.673 186.901 168.86H178.921V166.96H185.701L184.381 167.44C184.381 166.6 184.188 165.953 183.801 165.5C183.428 165.047 182.895 164.82 182.201 164.82C181.695 164.82 181.255 164.94 180.881 165.18C180.521 165.42 180.248 165.78 180.061 166.26C179.875 166.727 179.781 167.32 179.781 168.04C179.781 168.747 179.881 169.333 180.081 169.8C180.295 170.253 180.588 170.593 180.961 170.82C181.348 171.047 181.808 171.16 182.341 171.16C182.928 171.16 183.401 171.047 183.761 170.82C184.121 170.593 184.401 170.28 184.601 169.88L186.781 170.72C186.568 171.24 186.241 171.687 185.801 172.06C185.375 172.433 184.861 172.72 184.261 172.92C183.675 173.107 183.041 173.2 182.361 173.2ZM189.303 173V163H191.683L191.863 164.96C192.13 164.267 192.517 163.733 193.023 163.36C193.543 162.987 194.19 162.8 194.963 162.8C195.19 162.8 195.397 162.82 195.583 162.86C195.77 162.9 195.923 162.953 196.043 163.02L195.723 165.32C195.59 165.267 195.423 165.227 195.223 165.2C195.037 165.173 194.79 165.16 194.483 165.16C194.083 165.16 193.697 165.26 193.323 165.46C192.95 165.647 192.643 165.94 192.403 166.34C192.163 166.727 192.043 167.22 192.043 167.82V173H189.303ZM204.301 163H207.141L203.341 173H200.181L196.381 163H199.301L201.781 170.9L204.301 163ZM210.039 161.56C209.465 161.56 209.039 161.44 208.759 161.2C208.479 160.947 208.339 160.58 208.339 160.1C208.339 159.607 208.479 159.24 208.759 159C209.039 158.747 209.465 158.62 210.039 158.62C210.612 158.62 211.039 158.747 211.319 159C211.599 159.24 211.739 159.607 211.739 160.1C211.739 160.58 211.599 160.947 211.319 161.2C211.039 161.44 210.612 161.56 210.039 161.56ZM211.399 163V173H208.659V163H211.399ZM218.843 162.8C219.737 162.8 220.49 162.933 221.103 163.2C221.73 163.453 222.23 163.807 222.603 164.26C222.99 164.7 223.263 165.193 223.423 165.74L220.863 166.66C220.73 166.06 220.503 165.607 220.183 165.3C219.863 164.993 219.43 164.84 218.883 164.84C218.377 164.84 217.943 164.96 217.583 165.2C217.223 165.427 216.95 165.78 216.763 166.26C216.577 166.727 216.483 167.313 216.483 168.02C216.483 168.727 216.577 169.313 216.763 169.78C216.963 170.247 217.243 170.593 217.603 170.82C217.977 171.047 218.41 171.16 218.903 171.16C219.303 171.16 219.643 171.093 219.923 170.96C220.203 170.813 220.43 170.607 220.603 170.34C220.79 170.073 220.917 169.753 220.983 169.38L223.463 170.18C223.317 170.78 223.043 171.307 222.643 171.76C222.243 172.213 221.73 172.567 221.103 172.82C220.477 173.073 219.75 173.2 218.923 173.2C217.897 173.2 216.99 172.993 216.203 172.58C215.417 172.167 214.81 171.573 214.383 170.8C213.957 170.027 213.743 169.093 213.743 168C213.743 166.907 213.957 165.973 214.383 165.2C214.81 164.427 215.41 163.833 216.183 163.42C216.957 163.007 217.843 162.8 218.843 162.8ZM230.232 173.2C229.179 173.2 228.259 172.993 227.472 172.58C226.699 172.167 226.099 171.573 225.672 170.8C225.246 170.027 225.032 169.093 225.032 168C225.032 166.907 225.246 165.973 225.672 165.2C226.099 164.427 226.692 163.833 227.452 163.42C228.226 163.007 229.106 162.8 230.092 162.8C231.106 162.8 231.966 163.007 232.672 163.42C233.379 163.82 233.919 164.373 234.292 165.08C234.666 165.773 234.852 166.567 234.852 167.46C234.852 167.727 234.846 167.98 234.832 168.22C234.819 168.46 234.799 168.673 234.772 168.86H226.792V166.96H233.572L232.252 167.44C232.252 166.6 232.059 165.953 231.672 165.5C231.299 165.047 230.766 164.82 230.072 164.82C229.566 164.82 229.126 164.94 228.752 165.18C228.392 165.42 228.119 165.78 227.932 166.26C227.746 166.727 227.652 167.32 227.652 168.04C227.652 168.747 227.752 169.333 227.952 169.8C228.166 170.253 228.459 170.593 228.832 170.82C229.219 171.047 229.679 171.16 230.212 171.16C230.799 171.16 231.272 171.047 231.632 170.82C231.992 170.593 232.272 170.28 232.472 169.88L234.652 170.72C234.439 171.24 234.112 171.687 233.672 172.06C233.246 172.433 232.732 172.72 232.132 172.92C231.546 173.107 230.912 173.2 230.232 173.2ZM241.174 173.2C240.161 173.2 239.234 173.02 238.394 172.66C237.568 172.3 236.894 171.793 236.374 171.14L237.954 169.54C238.274 170.02 238.701 170.413 239.234 170.72C239.768 171.027 240.401 171.18 241.134 171.18C241.654 171.18 242.068 171.107 242.374 170.96C242.694 170.8 242.854 170.553 242.854 170.22C242.854 170.007 242.781 169.827 242.634 169.68C242.488 169.52 242.194 169.393 241.754 169.3L239.994 168.94C238.834 168.7 238.008 168.34 237.514 167.86C237.034 167.367 236.794 166.733 236.794 165.96C236.794 165.413 236.954 164.9 237.274 164.42C237.608 163.94 238.101 163.553 238.754 163.26C239.408 162.953 240.221 162.8 241.194 162.8C242.194 162.8 243.061 162.96 243.794 163.28C244.541 163.587 245.128 164.047 245.554 164.66L243.914 166.26C243.621 165.793 243.234 165.44 242.754 165.2C242.288 164.947 241.794 164.82 241.274 164.82C240.901 164.82 240.581 164.86 240.314 164.94C240.048 165.02 239.848 165.133 239.714 165.28C239.581 165.413 239.514 165.587 239.514 165.8C239.514 166.013 239.608 166.2 239.794 166.36C239.981 166.507 240.321 166.633 240.814 166.74L242.854 167.16C243.841 167.36 244.548 167.7 244.974 168.18C245.401 168.647 245.614 169.213 245.614 169.88C245.614 170.52 245.441 171.093 245.094 171.6C244.761 172.093 244.261 172.487 243.594 172.78C242.941 173.06 242.134 173.2 241.174 173.2Z" fill="white"/>
</g>
<defs>
<filter id="filter0_d_27_138" x="0" y="0" width="341" height="251" filterUnits="userSpaceOnUse" color-interpolation-filters="sRGB">
<feFlood flood-opacity="0" result="BackgroundImageFix"/>
<feColorMatrix in="SourceAlpha" type="matrix" values="0 0 0 0 0 0 0 0 0 0 0 0 0 0 0 0 0 0 127 0" result="hardAlpha"/>
<feMorphology radius="2" operator="erode" in="SourceAlpha" result="effect1_dropShadow_27_138"/>
<feOffset/>
<feGaussianBlur stdDeviation="18.5"/>
<feColorMatrix type="matrix" values="0 0 0 0 0.0666667 0 0 0 0 0.0941176 0 0 0 0 0.152941 0 0 0 0.05 0"/>
<feBlend mode="normal" in2="BackgroundImageFix" result="effect1_dropShadow_27_138"/>
<feBlend mode="normal" in="SourceGraphic" in2="effect1_dropShadow_27_138" result="shape"/>
</filter>
<clipPath id="clip0_27_138">
<rect width="40" height="40" fill="white" transform="translate(150.5 73)"/>
</clipPath>
</defs>
</svg>
