<svg width="357" height="179" viewBox="0 0 357 179" fill="none" xmlns="http://www.w3.org/2000/svg">
<g filter="url(#filter0_dd_32_70)">
<rect x="12" width="333" height="155" rx="4" fill="white"/>
<path d="M63.384 78.72C58.632 78.72 54.576 77.736 51.216 75.768C47.904 73.752 45.624 70.872 44.376 67.128L53.736 63.024C54.072 64.752 54.624 66.192 55.392 67.344C56.16 68.448 57.192 69.288 58.488 69.864C59.832 70.44 61.416 70.728 63.24 70.728C64.872 70.728 66.24 70.44 67.344 69.864C68.496 69.288 69.384 68.472 70.008 67.416C70.632 66.36 70.944 65.16 70.944 63.816C70.944 62.376 70.656 61.2 70.08 60.288C69.552 59.376 68.736 58.728 67.632 58.344C66.528 57.912 65.136 57.696 63.456 57.696C62.832 57.696 62.232 57.72 61.656 57.768C61.128 57.768 60.528 57.816 59.856 57.912V50.64C60.24 50.688 60.624 50.736 61.008 50.784C61.44 50.784 61.872 50.784 62.304 50.784C64.992 50.784 66.912 50.256 68.064 49.2C69.264 48.096 69.864 46.344 69.864 43.944C69.864 41.976 69.264 40.464 68.064 39.408C66.912 38.304 65.256 37.752 63.096 37.752C60.792 37.752 58.968 38.328 57.624 39.48C56.28 40.584 55.344 42.288 54.816 44.592L45.96 41.28C46.536 38.88 47.64 36.816 49.272 35.088C50.952 33.36 53.016 32.04 55.464 31.128C57.912 30.168 60.624 29.688 63.6 29.688C67.152 29.688 70.104 30.24 72.456 31.344C74.856 32.448 76.656 33.96 77.856 35.88C79.104 37.8 79.728 40.008 79.728 42.504C79.728 44.472 79.416 46.152 78.792 47.544C78.216 48.888 77.448 50.04 76.488 51C75.576 51.912 74.616 52.608 73.608 53.088C72.6 53.568 71.664 53.856 70.8 53.952V54.168C71.904 54.216 73.032 54.456 74.184 54.888C75.336 55.272 76.392 55.872 77.352 56.688C78.36 57.504 79.176 58.56 79.8 59.856C80.424 61.104 80.736 62.592 80.736 64.32C80.736 67.2 79.968 69.744 78.432 71.952C76.944 74.112 74.904 75.792 72.312 76.992C69.72 78.144 66.744 78.72 63.384 78.72ZM107.294 78.72C101.198 78.72 96.4944 76.656 93.1824 72.528C89.9184 68.4 88.2864 62.304 88.2864 54.24C88.2864 46.176 89.9184 40.08 93.1824 35.952C96.4944 31.824 101.198 29.76 107.294 29.76C113.39 29.76 118.07 31.824 121.334 35.952C124.646 40.08 126.302 46.176 126.302 54.24C126.302 62.304 124.646 68.4 121.334 72.528C118.07 76.656 113.39 78.72 107.294 78.72ZM107.294 70.728C109.358 70.728 111.038 70.152 112.334 69C113.678 67.8 114.686 66 115.358 63.6C116.03 61.152 116.366 58.032 116.366 54.24C116.366 50.448 116.03 47.352 115.358 44.952C114.686 42.504 113.678 40.704 112.334 39.552C111.038 38.352 109.358 37.752 107.294 37.752C105.23 37.752 103.526 38.352 102.182 39.552C100.838 40.704 99.8304 42.504 99.1584 44.952C98.5344 47.352 98.2224 50.448 98.2224 54.24C98.2224 58.032 98.5344 61.152 99.1584 63.6C99.8304 66 100.838 67.8 102.182 69C103.526 70.152 105.23 70.728 107.294 70.728Z" fill="#292E3D"/>
<rect x="58" y="97" width="7" height="28" fill="#F9995D"/>
<path d="M90.488 103.16L84.824 112.808V119H82.904V112.808L77.24 103.16H79.52L82.592 108.584L83.864 110.84L85.136 108.584L88.208 103.16H90.488ZM96.248 119.24C95.112 119.24 94.096 118.992 93.2 118.496C92.32 118 91.632 117.288 91.136 116.36C90.64 115.416 90.392 114.296 90.392 113C90.392 111.704 90.64 110.592 91.136 109.664C91.632 108.72 92.312 108 93.176 107.504C94.04 107.008 95.024 106.76 96.128 106.76C97.248 106.76 98.2 107 98.984 107.48C99.784 107.96 100.392 108.616 100.808 109.448C101.224 110.264 101.432 111.184 101.432 112.208C101.432 112.48 101.424 112.728 101.408 112.952C101.392 113.176 101.368 113.376 101.336 113.552H91.64V111.848H100.496L99.512 112.04C99.512 110.888 99.192 110 98.552 109.376C97.928 108.752 97.104 108.44 96.08 108.44C95.296 108.44 94.616 108.624 94.04 108.992C93.48 109.344 93.04 109.864 92.72 110.552C92.416 111.224 92.264 112.04 92.264 113C92.264 113.944 92.424 114.76 92.744 115.448C93.064 116.136 93.512 116.664 94.088 117.032C94.68 117.384 95.384 117.56 96.2 117.56C97.08 117.56 97.792 117.392 98.336 117.056C98.896 116.72 99.344 116.264 99.68 115.688L101.192 116.576C100.888 117.12 100.496 117.592 100.016 117.992C99.552 118.392 99 118.704 98.36 118.928C97.736 119.136 97.032 119.24 96.248 119.24ZM112.092 111.248C112.092 110.352 111.852 109.664 111.372 109.184C110.892 108.688 110.212 108.44 109.332 108.44C108.5 108.44 107.796 108.624 107.22 108.992C106.644 109.344 106.22 109.92 105.948 110.72L104.388 109.76C104.708 108.864 105.3 108.144 106.164 107.6C107.028 107.04 108.1 106.76 109.38 106.76C110.244 106.76 111.028 106.912 111.732 107.216C112.436 107.504 112.988 107.952 113.388 108.56C113.804 109.152 114.012 109.92 114.012 110.864V116.672C114.012 117.248 114.316 117.536 114.924 117.536C115.228 117.536 115.524 117.496 115.812 117.416L115.716 118.928C115.396 119.088 114.98 119.168 114.468 119.168C114.004 119.168 113.588 119.08 113.22 118.904C112.852 118.728 112.564 118.464 112.356 118.112C112.148 117.744 112.044 117.288 112.044 116.744V116.504L112.524 116.576C112.332 117.2 112.004 117.712 111.54 118.112C111.076 118.496 110.556 118.784 109.98 118.976C109.404 119.152 108.836 119.24 108.276 119.24C107.572 119.24 106.916 119.12 106.308 118.88C105.7 118.64 105.212 118.28 104.844 117.8C104.492 117.304 104.316 116.696 104.316 115.976C104.316 115.08 104.612 114.344 105.204 113.768C105.812 113.176 106.652 112.776 107.724 112.568L112.476 111.632V113.216L108.612 114.008C107.828 114.168 107.244 114.392 106.86 114.68C106.476 114.968 106.284 115.368 106.284 115.88C106.284 116.376 106.476 116.784 106.86 117.104C107.26 117.408 107.82 117.56 108.54 117.56C109.004 117.56 109.444 117.504 109.86 117.392C110.292 117.264 110.676 117.08 111.012 116.84C111.348 116.584 111.612 116.272 111.804 115.904C111.996 115.52 112.092 115.072 112.092 114.56V111.248ZM118.677 119V107H120.237L120.501 108.968C120.837 108.232 121.325 107.68 121.965 107.312C122.621 106.944 123.413 106.76 124.341 106.76C124.549 106.76 124.773 106.776 125.013 106.808C125.269 106.84 125.485 106.904 125.661 107L125.325 108.752C125.149 108.688 124.957 108.64 124.749 108.608C124.541 108.576 124.245 108.56 123.861 108.56C123.365 108.56 122.861 108.704 122.349 108.992C121.853 109.28 121.437 109.72 121.101 110.312C120.765 110.888 120.597 111.624 120.597 112.52V119H118.677ZM132.279 119.24C131.111 119.24 130.031 118.992 129.039 118.496C128.063 118 127.311 117.296 126.783 116.384L128.415 115.208C128.767 115.944 129.279 116.52 129.951 116.936C130.639 117.352 131.463 117.56 132.423 117.56C133.271 117.56 133.935 117.4 134.415 117.08C134.895 116.744 135.135 116.312 135.135 115.784C135.135 115.448 135.023 115.144 134.799 114.872C134.591 114.584 134.183 114.376 133.575 114.248L130.695 113.648C129.527 113.408 128.687 113.008 128.175 112.448C127.679 111.888 127.431 111.192 127.431 110.36C127.431 109.704 127.615 109.104 127.983 108.56C128.367 108.016 128.903 107.584 129.591 107.264C130.295 106.928 131.119 106.76 132.063 106.76C133.247 106.76 134.247 106.992 135.063 107.456C135.879 107.92 136.487 108.576 136.887 109.424L135.279 110.48C135.007 109.776 134.567 109.264 133.959 108.944C133.351 108.608 132.719 108.44 132.063 108.44C131.487 108.44 130.991 108.52 130.575 108.68C130.175 108.84 129.863 109.064 129.639 109.352C129.431 109.624 129.327 109.936 129.327 110.288C129.327 110.64 129.447 110.968 129.687 111.272C129.927 111.56 130.375 111.768 131.031 111.896L134.031 112.52C135.151 112.744 135.935 113.112 136.383 113.624C136.831 114.136 137.055 114.76 137.055 115.496C137.055 116.248 136.855 116.912 136.455 117.488C136.055 118.048 135.495 118.48 134.775 118.784C134.055 119.088 133.223 119.24 132.279 119.24ZM149.755 104.696C149.323 104.696 148.971 104.568 148.699 104.312C148.443 104.04 148.315 103.688 148.315 103.256C148.315 102.824 148.443 102.48 148.699 102.224C148.971 101.952 149.323 101.816 149.755 101.816C150.187 101.816 150.531 101.952 150.787 102.224C151.059 102.48 151.195 102.824 151.195 103.256C151.195 103.688 151.059 104.04 150.787 104.312C150.531 104.568 150.187 104.696 149.755 104.696ZM150.715 107V119H148.795V107H150.715ZM155.17 119V107H156.85L157.018 109.688L156.706 109.424C156.962 108.784 157.306 108.272 157.738 107.888C158.17 107.488 158.666 107.2 159.226 107.024C159.802 106.848 160.394 106.76 161.002 106.76C161.866 106.76 162.65 106.928 163.354 107.264C164.058 107.584 164.618 108.08 165.034 108.752C165.466 109.424 165.682 110.28 165.682 111.32V119H163.762V111.992C163.762 110.664 163.474 109.744 162.898 109.232C162.338 108.704 161.642 108.44 160.81 108.44C160.234 108.44 159.658 108.576 159.082 108.848C158.506 109.12 158.026 109.56 157.642 110.168C157.274 110.776 157.09 111.592 157.09 112.616V119H155.17ZM178.569 119V103.16H184.209C186.081 103.16 187.449 103.552 188.313 104.336C189.177 105.12 189.609 106.184 189.609 107.528C189.609 108.328 189.377 109.056 188.913 109.712C188.449 110.352 187.793 110.76 186.945 110.936V110.96C187.889 111.136 188.633 111.568 189.177 112.256C189.737 112.928 190.017 113.696 190.017 114.56C190.017 115.904 189.513 116.984 188.505 117.8C187.497 118.6 186.057 119 184.185 119H178.569ZM180.489 117.2H184.641C185.777 117.2 186.617 116.968 187.161 116.504C187.721 116.04 188.001 115.392 188.001 114.56C188.001 113.712 187.721 113.064 187.161 112.616C186.617 112.152 185.777 111.92 184.641 111.92H180.489V117.2ZM180.489 110.12H184.233C186.473 110.12 187.593 109.256 187.593 107.528C187.593 105.816 186.473 104.96 184.233 104.96H180.489V110.12ZM198.232 119.24C197.464 119.24 196.736 119.096 196.048 118.808C195.376 118.52 194.824 118.056 194.392 117.416C193.976 116.76 193.768 115.912 193.768 114.872V107H195.688V114.368C195.688 115.584 195.952 116.424 196.48 116.888C197.008 117.336 197.752 117.56 198.712 117.56C199.16 117.56 199.6 117.488 200.032 117.344C200.464 117.184 200.848 116.944 201.184 116.624C201.536 116.288 201.808 115.864 202 115.352C202.208 114.84 202.312 114.232 202.312 113.528V107H204.232V119H202.552L202.432 117.176C202.016 117.896 201.448 118.424 200.728 118.76C200.024 119.08 199.192 119.24 198.232 119.24ZM213.021 119.24C211.853 119.24 210.773 118.992 209.781 118.496C208.805 118 208.053 117.296 207.525 116.384L209.157 115.208C209.509 115.944 210.021 116.52 210.693 116.936C211.381 117.352 212.205 117.56 213.165 117.56C214.013 117.56 214.677 117.4 215.157 117.08C215.637 116.744 215.877 116.312 215.877 115.784C215.877 115.448 215.765 115.144 215.541 114.872C215.333 114.584 214.925 114.376 214.317 114.248L211.437 113.648C210.269 113.408 209.429 113.008 208.917 112.448C208.421 111.888 208.173 111.192 208.173 110.36C208.173 109.704 208.357 109.104 208.725 108.56C209.109 108.016 209.645 107.584 210.333 107.264C211.037 106.928 211.861 106.76 212.805 106.76C213.989 106.76 214.989 106.992 215.805 107.456C216.621 107.92 217.229 108.576 217.629 109.424L216.021 110.48C215.749 109.776 215.309 109.264 214.701 108.944C214.093 108.608 213.461 108.44 212.805 108.44C212.229 108.44 211.733 108.52 211.317 108.68C210.917 108.84 210.605 109.064 210.381 109.352C210.173 109.624 210.069 109.936 210.069 110.288C210.069 110.64 210.189 110.968 210.429 111.272C210.669 111.56 211.117 111.768 211.773 111.896L214.773 112.52C215.893 112.744 216.677 113.112 217.125 113.624C217.573 114.136 217.797 114.76 217.797 115.496C217.797 116.248 217.597 116.912 217.197 117.488C216.797 118.048 216.237 118.48 215.517 118.784C214.797 119.088 213.965 119.24 213.021 119.24ZM222.317 104.696C221.885 104.696 221.533 104.568 221.261 104.312C221.005 104.04 220.877 103.688 220.877 103.256C220.877 102.824 221.005 102.48 221.261 102.224C221.533 101.952 221.885 101.816 222.317 101.816C222.749 101.816 223.093 101.952 223.349 102.224C223.621 102.48 223.757 102.824 223.757 103.256C223.757 103.688 223.621 104.04 223.349 104.312C223.093 104.568 222.749 104.696 222.317 104.696ZM223.277 107V119H221.357V107H223.277ZM227.732 119V107H229.412L229.58 109.688L229.268 109.424C229.524 108.784 229.868 108.272 230.3 107.888C230.732 107.488 231.228 107.2 231.788 107.024C232.364 106.848 232.956 106.76 233.564 106.76C234.428 106.76 235.212 106.928 235.916 107.264C236.62 107.584 237.18 108.08 237.596 108.752C238.028 109.424 238.244 110.28 238.244 111.32V119H236.324V111.992C236.324 110.664 236.036 109.744 235.46 109.232C234.9 108.704 234.204 108.44 233.372 108.44C232.796 108.44 232.22 108.576 231.644 108.848C231.068 109.12 230.588 109.56 230.204 110.168C229.836 110.776 229.652 111.592 229.652 112.616V119H227.732ZM247.607 119.24C246.471 119.24 245.455 118.992 244.559 118.496C243.679 118 242.991 117.288 242.495 116.36C241.999 115.416 241.751 114.296 241.751 113C241.751 111.704 241.999 110.592 242.495 109.664C242.991 108.72 243.671 108 244.535 107.504C245.399 107.008 246.383 106.76 247.487 106.76C248.607 106.76 249.559 107 250.343 107.48C251.143 107.96 251.751 108.616 252.167 109.448C252.583 110.264 252.791 111.184 252.791 112.208C252.791 112.48 252.783 112.728 252.767 112.952C252.751 113.176 252.727 113.376 252.695 113.552H242.999V111.848H251.855L250.871 112.04C250.871 110.888 250.551 110 249.911 109.376C249.287 108.752 248.463 108.44 247.439 108.44C246.655 108.44 245.975 108.624 245.399 108.992C244.839 109.344 244.399 109.864 244.079 110.552C243.775 111.224 243.623 112.04 243.623 113C243.623 113.944 243.783 114.76 244.103 115.448C244.423 116.136 244.871 116.664 245.447 117.032C246.039 117.384 246.743 117.56 247.559 117.56C248.439 117.56 249.151 117.392 249.695 117.056C250.255 116.72 250.703 116.264 251.039 115.688L252.551 116.576C252.247 117.12 251.855 117.592 251.375 117.992C250.911 118.392 250.359 118.704 249.719 118.928C249.095 119.136 248.391 119.24 247.607 119.24ZM260.763 119.24C259.595 119.24 258.515 118.992 257.523 118.496C256.547 118 255.795 117.296 255.267 116.384L256.899 115.208C257.251 115.944 257.763 116.52 258.435 116.936C259.123 117.352 259.947 117.56 260.907 117.56C261.755 117.56 262.419 117.4 262.899 117.08C263.379 116.744 263.619 116.312 263.619 115.784C263.619 115.448 263.507 115.144 263.283 114.872C263.075 114.584 262.667 114.376 262.059 114.248L259.179 113.648C258.011 113.408 257.171 113.008 256.659 112.448C256.163 111.888 255.915 111.192 255.915 110.36C255.915 109.704 256.099 109.104 256.467 108.56C256.851 108.016 257.387 107.584 258.075 107.264C258.779 106.928 259.603 106.76 260.547 106.76C261.731 106.76 262.731 106.992 263.547 107.456C264.363 107.92 264.971 108.576 265.371 109.424L263.763 110.48C263.491 109.776 263.051 109.264 262.443 108.944C261.835 108.608 261.203 108.44 260.547 108.44C259.971 108.44 259.475 108.52 259.059 108.68C258.659 108.84 258.347 109.064 258.123 109.352C257.915 109.624 257.811 109.936 257.811 110.288C257.811 110.64 257.931 110.968 258.171 111.272C258.411 111.56 258.859 111.768 259.515 111.896L262.515 112.52C263.635 112.744 264.419 113.112 264.867 113.624C265.315 114.136 265.539 114.76 265.539 115.496C265.539 116.248 265.339 116.912 264.939 117.488C264.539 118.048 263.979 118.48 263.259 118.784C262.539 119.088 261.707 119.24 260.763 119.24ZM273.419 119.24C272.251 119.24 271.171 118.992 270.179 118.496C269.203 118 268.451 117.296 267.923 116.384L269.555 115.208C269.907 115.944 270.419 116.52 271.091 116.936C271.779 117.352 272.603 117.56 273.563 117.56C274.411 117.56 275.075 117.4 275.555 117.08C276.035 116.744 276.275 116.312 276.275 115.784C276.275 115.448 276.163 115.144 275.939 114.872C275.731 114.584 275.323 114.376 274.715 114.248L271.835 113.648C270.667 113.408 269.827 113.008 269.315 112.448C268.819 111.888 268.571 111.192 268.571 110.36C268.571 109.704 268.755 109.104 269.123 108.56C269.507 108.016 270.043 107.584 270.731 107.264C271.435 106.928 272.259 106.76 273.203 106.76C274.387 106.76 275.387 106.992 276.203 107.456C277.019 107.92 277.627 108.576 278.027 109.424L276.419 110.48C276.147 109.776 275.707 109.264 275.099 108.944C274.491 108.608 273.859 108.44 273.203 108.44C272.627 108.44 272.131 108.52 271.715 108.68C271.315 108.84 271.003 109.064 270.779 109.352C270.571 109.624 270.467 109.936 270.467 110.288C270.467 110.64 270.587 110.968 270.827 111.272C271.067 111.56 271.515 111.768 272.171 111.896L275.171 112.52C276.291 112.744 277.075 113.112 277.523 113.624C277.971 114.136 278.195 114.76 278.195 115.496C278.195 116.248 277.995 116.912 277.595 117.488C277.195 118.048 276.635 118.48 275.915 118.784C275.195 119.088 274.363 119.24 273.419 119.24Z" fill="#667299"/>
<rect x="12.5" y="0.5" width="332" height="154" rx="3.5" stroke="white"/>
</g>
<defs>
<filter id="filter0_dd_32_70" x="0" y="0" width="357" height="179" filterUnits="userSpaceOnUse" color-interpolation-filters="sRGB">
<feFlood flood-opacity="0" result="BackgroundImageFix"/>
<feColorMatrix in="SourceAlpha" type="matrix" values="0 0 0 0 0 0 0 0 0 0 0 0 0 0 0 0 0 0 127 0" result="hardAlpha"/>
<feMorphology radius="2" operator="erode" in="SourceAlpha" result="effect1_dropShadow_32_70"/>
<feOffset dy="4"/>
<feGaussianBlur stdDeviation="3"/>
<feColorMatrix type="matrix" values="0 0 0 0 0.0666667 0 0 0 0 0.0941176 0 0 0 0 0.152941 0 0 0 0.05 0"/>
<feBlend mode="normal" in2="BackgroundImageFix" result="effect1_dropShadow_32_70"/>
<feColorMatrix in="SourceAlpha" type="matrix" values="0 0 0 0 0 0 0 0 0 0 0 0 0 0 0 0 0 0 127 0" result="hardAlpha"/>
<feMorphology radius="4" operator="erode" in="SourceAlpha" result="effect2_dropShadow_32_70"/>
<feOffset dy="12"/>
<feGaussianBlur stdDeviation="8"/>
<feColorMatrix type="matrix" values="0 0 0 0 0.0666667 0 0 0 0 0.0941176 0 0 0 0 0.152941 0 0 0 0.1 0"/>
<feBlend mode="normal" in2="effect1_dropShadow_32_70" result="effect2_dropShadow_32_70"/>
<feBlend mode="normal" in="SourceGraphic" in2="effect2_dropShadow_32_70" result="shape"/>
</filter>
</defs>
</svg>
